<?xml version="1.0" encoding="utf-8"?>
<!-- Generator: Adobe Illustrator 23.0.6, SVG Export Plug-In . SVG Version: 6.00 Build 0)  -->
<svg version="1.1" id="图层_1" xmlns="http://www.w3.org/2000/svg" xmlns:xlink="http://www.w3.org/1999/xlink" x="0px" y="0px"
	 viewBox="0 0 86 102" style="enable-background:new 0 0 86 102;" xml:space="preserve">
<style type="text/css">
	.st0{fill:#A5ACC1;fill-opacity:0.6;}
	.st1{fill:#F9C563;}
	.st2{fill:#FFFFFF;}
	.st3{opacity:0.6;}
	.st4{fill:#A5ACC1;}
</style>
<g>
	<path class="st0" d="M83,0H3C1.3,0,0,1.3,0,3v96c0,1.7,1.3,3,3,3h80c1.7,0,3-1.3,3-3V3C86,1.3,84.7,0,83,0z M83,1c1.1,0,2,0.9,2,2
		v96c0,1.1-0.9,2-2,2H3c-1.1,0-2-0.9-2-2V3c0-1.1,0.9-2,2-2H83z"/>
	<path class="st1" d="M1,12L12,1h23L1,35V12z"/>
	<path class="st2" d="M10.4,9.4c0.4-0.4,1-0.4,1.4,0l4.2,4.2c0.4,0.4,0.4,1,0,1.4c-0.4,0.4-1,0.4-1.4,0l-4.2-4.2
		C10,10.4,10,9.8,10.4,9.4z M14.6,5.1c1.2-1.2,3.1-1.2,4.2,0c1.2,1.2,1.2,3.1,0,4.2L18.1,10l0.7,0.7c0.4,0.4,0.4,1,0,1.4
		s-1,0.4-1.4,0l-4.9-4.9L14.6,5.1z M7.5,12.2c0.4-0.4,1-0.4,1.4,0l2.8,2.8c0.1,0.1,0.1,0.1,0.2,0.2c0.1,0.2,0.1,0.3,0.1,0.5v2.8
		c0,0.3-0.1,0.5-0.3,0.7l-0.1,0.1c-0.2,0.2-0.4,0.3-0.7,0.3H8.1c-0.1,0-0.1,0-0.2,0c-0.2,0-0.4-0.1-0.6-0.3l-2.8-2.8
		c-0.4-0.4-0.4-1,0-1.4s1-0.4,1.4,0l2.5,2.5h1.4v-1.4l-2.5-2.5C7.1,13.2,7.1,12.6,7.5,12.2z M16,6.5l-0.7,0.7l1.4,1.4l0.7-0.7
		c0.4-0.4,0.4-1,0-1.4C17,6.1,16.4,6.1,16,6.5z"/>
	<g class="st3">
		<g>
			<path class="st4" d="M9.7,65.1l0.9-0.9l6.9,6.9L16.6,72L9.7,65.1z"/>
			<path class="st4" d="M12.5,62.4l0.9-0.9l6.8,1.8l2.1,0.7l0,0c-0.7-0.6-1.6-1.3-2.3-2.1l-3.6-3.6l0.8-0.8l6.9,6.9l-0.9,0.9
				l-6.8-1.8l-2.2-0.7l0,0c0.7,0.7,1.5,1.3,2.2,2l3.6,3.6l-0.8,0.8L12.5,62.4z"/>
			<path class="st4" d="M21.4,54.9L19.3,57l-0.7-0.7l5-5l0.7,0.7l-2.1,2.1l6.1,6.1l-0.9,0.9L21.4,54.9z"/>
			<path class="st4" d="M24.8,50l4-4l0.7,0.7l-3.1,3.1l2.2,2.2l2.6-2.6l0.7,0.7l-2.6,2.6l2.5,2.5L35,52l0.7,0.7l-4.1,4.1L24.8,50z"
				/>
			<path class="st4" d="M41,47.6l-4.6-1.2l-1.2,1.2l2.9,2.9l-0.9,0.9l-6.9-6.9l2.2-2.2c1.4-1.4,2.9-1.9,4.3-0.5
				c1.1,1.1,1.1,2.3,0.4,3.5l4.8,1.2L41,47.6z M34.5,46.9l1.2-1.2c1.1-1.1,1.2-2.1,0.3-3s-1.8-0.6-2.9,0.4l-1.2,1.2L34.5,46.9z"/>
			<path class="st4" d="M36.3,38.6l0.9-0.9l6.8,1.8l2.1,0.7l0,0c-0.7-0.6-1.6-1.3-2.3-2.1l-3.6-3.6l0.8-0.8l6.9,6.9L47,41.5
				l-6.8-1.8L38,39l0,0c0.7,0.7,1.5,1.3,2.2,2l3.6,3.6L43,45.4L36.3,38.6z"/>
			<path class="st4" d="M51,33.4l-2.5,2.5l1.4,2.8L49,39.6l-4.5-9.2l1-1l9.2,4.5l-0.9,0.9L51,33.4z M50.1,32.9l-1.4-0.7
				c-1-0.5-2-1.1-3-1.6l0,0c0.6,1,1.1,2,1.6,3L48,35L50.1,32.9z"/>
			<path class="st4" d="M48.7,26.1l0.9-0.9l6.1,6.1l3-3l0.7,0.7l-3.8,4L48.7,26.1z"/>
			<path class="st4" d="M12.9,84.4l0.9-0.9l6.9,6.9l-0.9,0.9L12.9,84.4z"/>
			<path class="st4" d="M15.7,81.7l0.9-0.9l6.8,1.8l2.1,0.7l0,0c-0.7-0.6-1.6-1.3-2.3-2.1l-3.6-3.6l0.8-0.8l6.9,6.9l-0.9,0.9
				l-6.8-1.8L17.5,82l0,0c0.7,0.7,1.5,1.3,2.2,2l3.6,3.6l-0.8,0.8L15.7,81.7z"/>
			<path class="st4" d="M22.4,74.9l4-4l0.7,0.7L24,74.8l2.3,2.3l2.6-2.6l0.7,0.7L27,77.8l3.1,3.1l-0.9,0.9L22.4,74.9z"/>
			<path class="st4" d="M30.5,73.6c-2.2-2.2-2.3-4.7-0.6-6.5c1.7-1.7,4.3-1.6,6.5,0.6s2.4,4.8,0.6,6.5C35.3,76,32.7,75.8,30.5,73.6z
				 M35.5,68.7c-1.7-1.7-3.6-2-4.8-0.7c-1.2,1.2-1,3.1,0.7,4.8c1.7,1.7,3.6,2,4.9,0.8C37.5,72.3,37.2,70.4,35.5,68.7z"/>
			<path class="st4" d="M45.1,66l-4.6-1.2L39.3,66l2.9,2.9l-0.9,0.9l-6.9-6.9l2.2-2.2c1.4-1.4,2.9-1.9,4.3-0.5
				c1.1,1.1,1.1,2.3,0.4,3.5l4.8,1.2L45.1,66z M38.6,65.3l1.2-1.2c1.1-1.1,1.2-2.1,0.3-3s-1.8-0.6-2.9,0.4L36,62.7L38.6,65.3z"/>
			<path class="st4" d="M40.4,56.9l1-1l5,2.4c0.6,0.3,1.3,0.6,1.9,0.9l0,0c-0.3-0.6-0.6-1.3-1-1.9l-2.4-5l1-1l6.9,6.9L52,59
				l-3.8-3.8c-0.6-0.6-1.4-1.5-1.9-2.1l0,0l1,2.1l2.3,4.9L49,60.7l-4.9-2.3l-2.1-1l0,0c0.6,0.6,1.5,1.3,2.1,1.9l3.8,3.8l-0.8,0.8
				L40.4,56.9z"/>
			<path class="st4" d="M55.9,50.9l-2.5,2.5l1.4,2.8L54,57.1l-4.5-9.2l1-1l9.2,4.5l-0.9,0.9L55.9,50.9z M55,50.5l-1.4-0.7
				c-1-0.5-2-1.1-3-1.6l0,0c0.6,1,1.1,2,1.6,3l0.7,1.4L55,50.5z"/>
			<path class="st4" d="M55.3,43.5l-2.1,2.1l-0.7-0.7l5-5l0.7,0.7l-2.1,2.1l6.1,6.1l-0.9,0.9L55.3,43.5z"/>
			<path class="st4" d="M58.7,38.6l0.9-0.9l6.9,6.9l-0.9,0.9L58.7,38.6z"/>
			<path class="st4" d="M64.5,39.7c-2.2-2.2-2.3-4.7-0.6-6.5c1.7-1.8,4.3-1.6,6.5,0.6s2.4,4.8,0.6,6.5C69.3,42,66.7,41.9,64.5,39.7z
				 M69.5,34.7c-1.7-1.7-3.6-2-4.8-0.7c-1.2,1.2-1,3.1,0.7,4.8s3.6,2,4.9,0.8C71.5,38.3,71.2,36.4,69.5,34.7z"/>
			<path class="st4" d="M68.4,28.9l0.9-0.9l6.8,1.8l2.1,0.7l0,0c-0.7-0.6-1.6-1.3-2.3-2.1l-3.6-3.6l0.8-0.8l6.9,6.9l-0.9,0.9
				L72.3,30l-2.2-0.7l0,0c0.7,0.7,1.5,1.3,2.2,2l3.6,3.6l-0.8,0.8L68.4,28.9z"/>
		</g>
	</g>
</g>
</svg>
