<?xml version="1.0" encoding="utf-8"?>
<!-- Generator: Adobe Illustrator 23.0.6, SVG Export Plug-In . SVG Version: 6.00 Build 0)  -->
<svg version="1.1" id="图层_1" xmlns="http://www.w3.org/2000/svg" xmlns:xlink="http://www.w3.org/1999/xlink" x="0px" y="0px"
	 viewBox="0 0 86 102" style="enable-background:new 0 0 86 102;" xml:space="preserve">
<style type="text/css">
	.st0{fill:#A5ACC1;fill-opacity:0.6;}
	.st1{fill-rule:evenodd;clip-rule:evenodd;fill:#F9C563;}
	.st2{fill-rule:evenodd;clip-rule:evenodd;fill:#FFFFFF;}
	.st3{opacity:0.6;}
	.st4{fill:#A5ACC1;}
</style>
<g>
	<path class="st0" d="M83,0H3C1.3,0,0,1.3,0,3v96c0,1.7,1.3,3,3,3h80c1.7,0,3-1.3,3-3V3C86,1.3,84.7,0,83,0z M83,1c1.1,0,2,0.9,2,2
		v96c0,1.1-0.9,2-2,2H3c-1.1,0-2-0.9-2-2V3c0-1.1,0.9-2,2-2H83z"/>
	<path class="st1" d="M1,12L12,1h23L1,35V12z"/>
	<path class="st2" d="M10.4,9.4c0.4-0.4,1-0.4,1.4,0l4.2,4.2c0.4,0.4,0.4,1,0,1.4s-1,0.4-1.4,0l-4.2-4.2C10,10.4,10,9.8,10.4,9.4z
		 M14.6,5.1c1.2-1.2,3.1-1.2,4.2,0s1.2,3.1,0,4.2L18.1,10l0.7,0.7c0.4,0.4,0.4,1,0,1.4s-1,0.4-1.4,0l-4.9-4.9L14.6,5.1z M7.5,12.2
		c0.4-0.4,1-0.4,1.4,0l2.8,2.8c0.1,0.1,0.1,0.1,0.2,0.2c0.1,0.2,0.1,0.3,0.1,0.5v2.8c0,0.3-0.1,0.5-0.3,0.7l-0.1,0.1
		c-0.2,0.2-0.4,0.3-0.7,0.3H8.1c-0.1,0-0.1,0-0.2,0c-0.2,0-0.4-0.1-0.6-0.3l-2.8-2.8c-0.4-0.4-0.4-1,0-1.4s1-0.4,1.4,0l2.5,2.5h1.4
		v-1.4l-2.5-2.5C7.1,13.2,7.1,12.6,7.5,12.2z M16,6.5l-0.7,0.7l1.4,1.4l0.7-0.7c0.4-0.4,0.4-1,0-1.4C17,6.1,16.4,6.1,16,6.5z"/>
</g>
<g class="st3">
	<g>
		<path class="st4" d="M14,50.4l-1.2,1.2l-0.4-0.4l2.8-2.8l0.4,0.4L14.4,50l3.4,3.4l-0.5,0.5L14,50.4z"/>
		<path class="st4" d="M17.5,49.9c-1.2-1.2-1.3-2.6-0.3-3.6s2.4-0.9,3.6,0.3s1.3,2.7,0.4,3.6S18.7,51.1,17.5,49.9z M20.2,47.1
			c-1-1-2-1.1-2.7-0.4c-0.7,0.7-0.5,1.7,0.4,2.7c1,1,2,1.1,2.7,0.4C21.3,49.2,21.2,48.1,20.2,47.1z"/>
		<path class="st4" d="M19.7,43.9l1.1-1.1c0.9-0.9,1.7-1.1,2.6-0.3c0.8,0.8,0.6,1.8-0.2,2.6l-0.6,0.6l1.5,1.5l-0.5,0.5L19.7,43.9z
			 M22.6,44.8c0.7-0.7,0.7-1.2,0.2-1.8c-0.6-0.6-1.1-0.4-1.7,0.3l-0.5,0.5l1.5,1.5L22.6,44.8z"/>
		<path class="st4" d="M27.2,43.1v-0.6c0.6,0,1.1-0.2,1.5-0.6c0.5-0.5,0.6-1.1,0.2-1.4c-0.4-0.4-0.8-0.2-1.3,0l-0.8,0.3
			c-0.5,0.2-1.2,0.4-1.8-0.2c-0.6-0.6-0.5-1.5,0.2-2.2c0.5-0.5,1-0.7,1.6-0.7l0.1,0.6c-0.5,0-0.9,0.2-1.2,0.5
			c-0.4,0.4-0.5,0.9-0.2,1.3c0.4,0.4,0.8,0.2,1.3,0l0.8-0.3c0.6-0.2,1.2-0.3,1.8,0.2c0.6,0.6,0.6,1.6-0.2,2.4
			C28.5,42.8,27.8,43.1,27.2,43.1z"/>
		<path class="st4" d="M27.2,36.4l2.2-2.2l0.4,0.4l-1.7,1.7l1.2,1.2l1.4-1.4l0.4,0.4l-1.4,1.4l1.4,1.4l1.8-1.8l0.4,0.4L31,40.2
			L27.2,36.4z"/>
		<path class="st4" d="M32,35.4c-1.2-1.2-1.3-2.7-0.3-3.7c0.5-0.5,1.1-0.6,1.5-0.6l0.1,0.6c-0.4,0-0.8,0.1-1.1,0.4
			c-0.7,0.7-0.6,1.8,0.3,2.8c1,1,2,1.1,2.8,0.4c0.4-0.4,0.5-0.8,0.5-1.3h0.6c0,0.7-0.1,1.2-0.6,1.7C34.7,36.7,33.2,36.7,32,35.4z"/>
		<path class="st4" d="M39.5,31.7L37,31l-0.7,0.7l1.6,1.6l-0.5,0.5L33.6,30l1.2-1.2c0.8-0.8,1.6-1.1,2.4-0.3
			c0.6,0.6,0.6,1.3,0.2,1.9l2.7,0.7L39.5,31.7z M35.9,31.3l0.6-0.6c0.6-0.6,0.7-1.2,0.2-1.7s-1-0.4-1.6,0.2l-0.6,0.6L35.9,31.3z"/>
		<path class="st4" d="M36.9,26.7l2.2-2.2l0.4,0.4l-1.7,1.7l1.2,1.2l1.4-1.4l0.4,0.4l-1.4,1.4l1.4,1.4l1.8-1.8l0.4,0.4l-2.3,2.3
			L36.9,26.7z"/>
		<path class="st4" d="M41.2,23.2L40,24.4L39.6,24l2.8-2.8l0.4,0.4l-1.2,1.2l3.4,3.4l-0.5,0.5L41.2,23.2z"/>
	</g>
</g>
<g class="st3">
	<g>
		<path class="st4" d="M42.6,88.4l-1.2,1.2L41,89.1l2.8-2.8l0.4,0.4L43,87.9l3.4,3.4L46,91.8L42.6,88.4z"/>
		<path class="st4" d="M46,87.9c-1.2-1.2-1.3-2.6-0.3-3.6s2.4-0.9,3.6,0.3c1.2,1.2,1.3,2.7,0.4,3.6S47.2,89.1,46,87.9z M48.8,85.1
			c-1-1-2-1.1-2.7-0.4s-0.5,1.7,0.4,2.7c1,1,2,1.1,2.7,0.4C49.9,87.2,49.7,86.1,48.8,85.1z"/>
		<path class="st4" d="M48.2,81.9l1.1-1.1c0.9-0.9,1.7-1.1,2.6-0.3c0.8,0.8,0.6,1.8-0.2,2.6L51,83.8l1.5,1.5L52,85.8L48.2,81.9z
			 M51.2,82.8c0.7-0.7,0.7-1.2,0.2-1.8c-0.6-0.6-1.1-0.4-1.7,0.3l-0.5,0.5l1.5,1.5L51.2,82.8z"/>
		<path class="st4" d="M55.7,81.1v-0.6c0.6,0,1.1-0.2,1.5-0.6c0.5-0.5,0.6-1.1,0.2-1.4c-0.4-0.4-0.8-0.2-1.3,0l-0.8,0.3
			c-0.5,0.2-1.2,0.4-1.8-0.2s-0.5-1.5,0.2-2.2c0.5-0.5,1-0.7,1.6-0.7l0.1,0.6c-0.5,0-0.9,0.2-1.2,0.5c-0.4,0.4-0.5,0.9-0.2,1.3
			c0.4,0.4,0.8,0.2,1.3,0l0.8-0.3c0.6-0.2,1.2-0.3,1.8,0.2c0.6,0.6,0.6,1.6-0.2,2.4C57.1,80.8,56.4,81.1,55.7,81.1z"/>
		<path class="st4" d="M55.8,74.4l2.2-2.2l0.4,0.4l-1.7,1.7l1.2,1.2l1.4-1.4l0.4,0.4l-1.4,1.4l1.4,1.4l1.8-1.8l0.4,0.4l-2.3,2.3
			L55.8,74.4z"/>
		<path class="st4" d="M60.5,73.4c-1.2-1.2-1.3-2.7-0.3-3.7c0.5-0.5,1.1-0.6,1.5-0.6l0.1,0.6c-0.4,0-0.8,0.1-1.1,0.4
			c-0.7,0.7-0.6,1.8,0.3,2.8c1,1,2,1.1,2.8,0.4c0.4-0.4,0.5-0.8,0.5-1.3h0.6c0,0.7-0.1,1.2-0.6,1.7C63.2,74.7,61.8,74.7,60.5,73.4z"
			/>
		<path class="st4" d="M68.1,69.7L65.5,69l-0.7,0.7l1.6,1.6L66,71.8L62.2,68l1.2-1.2c0.8-0.8,1.6-1.1,2.4-0.3
			c0.6,0.6,0.6,1.3,0.2,1.9l2.7,0.7L68.1,69.7z M64.4,69.3l0.6-0.6c0.6-0.6,0.7-1.2,0.2-1.7s-1-0.4-1.6,0.2L63,67.9L64.4,69.3z"/>
		<path class="st4" d="M65.5,64.7l2.2-2.2l0.4,0.4l-1.7,1.7l1.2,1.2l1.4-1.4l0.4,0.4L68,66.2l1.4,1.4l1.8-1.8l0.4,0.4l-2.3,2.3
			L65.5,64.7z"/>
		<path class="st4" d="M69.7,61.2l-1.2,1.2L68.2,62l2.8-2.8l0.4,0.4l-1.2,1.2l3.4,3.4l-0.5,0.5L69.7,61.2z"/>
	</g>
</g>
<g class="st3">
	<g>
		<path class="st4" d="M6.2,91.7L5,92.9l-0.4-0.4l2.8-2.8l0.4,0.4l-1.2,1.2l3.4,3.4l-0.5,0.5L6.2,91.7z"/>
		<path class="st4" d="M9.6,91.2c-1.2-1.2-1.3-2.6-0.3-3.6s2.4-0.9,3.6,0.3c1.2,1.2,1.3,2.7,0.4,3.6S10.8,92.5,9.6,91.2z M12.4,88.5
			c-1-1-2-1.1-2.7-0.4s-0.5,1.7,0.4,2.7c1,1,2,1.1,2.7,0.4C13.5,90.5,13.3,89.4,12.4,88.5z"/>
		<path class="st4" d="M11.8,85.3l1.1-1.1c0.9-0.9,1.7-1.1,2.6-0.3c0.8,0.8,0.6,1.8-0.2,2.6l-0.6,0.6l1.5,1.5l-0.5,0.5L11.8,85.3z
			 M14.8,86.1c0.7-0.7,0.7-1.2,0.2-1.8c-0.6-0.6-1.1-0.4-1.7,0.3l-0.5,0.5l1.5,1.5L14.8,86.1z"/>
		<path class="st4" d="M19.3,84.4v-0.6c0.6,0,1.1-0.2,1.5-0.6c0.5-0.5,0.6-1.1,0.2-1.4c-0.4-0.4-0.8-0.2-1.3,0L18.9,82
			c-0.5,0.2-1.2,0.4-1.8-0.2c-0.6-0.6-0.5-1.5,0.2-2.2c0.5-0.5,1-0.7,1.6-0.7l0.1,0.6c-0.5,0-0.9,0.2-1.2,0.5
			c-0.4,0.4-0.5,0.9-0.2,1.3c0.4,0.4,0.8,0.2,1.3,0l0.8-0.3c0.6-0.2,1.2-0.3,1.8,0.2c0.6,0.6,0.6,1.6-0.2,2.4
			C20.7,84.2,20,84.4,19.3,84.4z"/>
		<path class="st4" d="M19.4,77.7l2.2-2.2l0.4,0.4l-1.7,1.7l1.2,1.2l1.4-1.4l0.4,0.4l-1.4,1.4l1.4,1.4l1.8-1.8l0.4,0.4l-2.3,2.3
			L19.4,77.7z"/>
		<path class="st4" d="M24.1,76.8c-1.2-1.2-1.3-2.7-0.3-3.7c0.5-0.5,1.1-0.6,1.5-0.6l0.1,0.6c-0.4,0-0.8,0.1-1.1,0.4
			c-0.7,0.7-0.6,1.8,0.3,2.8c1,1,2,1.1,2.8,0.4c0.4-0.4,0.5-0.8,0.5-1.3h0.6c0,0.7-0.1,1.2-0.6,1.7C26.8,78,25.4,78,24.1,76.8z"/>
		<path class="st4" d="M31.7,73l-2.5-0.7L28.4,73l1.6,1.6l-0.5,0.5l-3.8-3.8l1.2-1.2c0.8-0.8,1.6-1.1,2.4-0.3
			c0.6,0.6,0.6,1.3,0.2,1.9l2.7,0.7L31.7,73z M28,72.6l0.6-0.6c0.6-0.6,0.7-1.2,0.2-1.7s-1-0.4-1.6,0.2l-0.6,0.6L28,72.6z"/>
		<path class="st4" d="M29,68l2.2-2.2l0.4,0.4l-1.7,1.7l1.2,1.2l1.4-1.4l0.4,0.4l-1.4,1.4l1.4,1.4l1.8-1.8l0.4,0.4l-2.3,2.3L29,68z"
			/>
		<path class="st4" d="M33.3,64.6l-1.2,1.2l-0.4-0.4l2.8-2.8l0.4,0.4l-1.2,1.2l3.4,3.4L36.7,68L33.3,64.6z"/>
	</g>
</g>
<g class="st3">
	<g>
		<path class="st4" d="M46.1,51L45,52.2l-0.4-0.4l2.8-2.8l0.4,0.4l-1.2,1.2L50,54l-0.5,0.5L46.1,51z"/>
		<path class="st4" d="M49.6,50.6c-1.2-1.2-1.3-2.6-0.3-3.6s2.4-0.9,3.6,0.3c1.2,1.2,1.3,2.7,0.4,3.6S50.8,51.8,49.6,50.6z
			 M52.4,47.8c-1-1-2-1.1-2.7-0.4c-0.7,0.7-0.5,1.7,0.4,2.7c1,1,2,1.1,2.7,0.4C53.5,49.8,53.3,48.7,52.4,47.8z"/>
		<path class="st4" d="M51.8,44.6l1.1-1.1c0.9-0.9,1.7-1.1,2.6-0.3c0.8,0.8,0.6,1.8-0.2,2.6l-0.6,0.6l1.5,1.5l-0.5,0.5L51.8,44.6z
			 M54.7,45.4c0.7-0.7,0.7-1.2,0.2-1.8c-0.6-0.6-1.1-0.4-1.7,0.3l-0.5,0.5l1.5,1.5L54.7,45.4z"/>
		<path class="st4" d="M59.3,43.7v-0.6c0.6,0,1.1-0.2,1.5-0.6c0.5-0.5,0.6-1.1,0.2-1.4c-0.4-0.4-0.8-0.2-1.3,0l-0.8,0.3
			c-0.5,0.2-1.2,0.4-1.8-0.2c-0.6-0.6-0.5-1.5,0.2-2.2c0.5-0.5,1-0.7,1.6-0.7l0.1,0.6c-0.5,0-0.9,0.2-1.2,0.5
			c-0.4,0.4-0.5,0.9-0.2,1.3c0.4,0.4,0.8,0.2,1.3,0l0.8-0.3c0.6-0.2,1.2-0.3,1.8,0.2c0.6,0.6,0.6,1.6-0.2,2.4
			C60.6,43.5,60,43.7,59.3,43.7z"/>
		<path class="st4" d="M59.3,37l2.2-2.2l0.4,0.4l-1.7,1.7l1.2,1.2l1.4-1.4l0.4,0.4l-1.4,1.4l1.4,1.4l1.8-1.8l0.4,0.4l-2.3,2.3
			L59.3,37z"/>
		<path class="st4" d="M64.1,36.1c-1.2-1.2-1.3-2.7-0.3-3.7c0.5-0.5,1.1-0.6,1.5-0.6l0.1,0.6c-0.4,0-0.8,0.1-1.1,0.4
			c-0.7,0.7-0.6,1.8,0.3,2.8c1,1,2,1.1,2.8,0.4c0.4-0.4,0.5-0.8,0.5-1.3h0.6c0,0.7-0.1,1.2-0.6,1.7C66.8,37.3,65.3,37.3,64.1,36.1z"
			/>
		<path class="st4" d="M71.6,32.4l-2.5-0.7l-0.7,0.7L70,34l-0.5,0.5l-3.8-3.8l1.2-1.2c0.8-0.8,1.6-1.1,2.4-0.3
			c0.6,0.6,0.6,1.3,0.2,1.9l2.7,0.7L71.6,32.4z M68,32l0.6-0.6c0.6-0.6,0.7-1.2,0.2-1.7s-1-0.4-1.6,0.2l-0.6,0.6L68,32z"/>
		<path class="st4" d="M69,27.3l2.2-2.2l0.4,0.4l-1.7,1.7l1.2,1.2l1.4-1.4l0.4,0.4l-1.4,1.4l1.4,1.4l1.8-1.8l0.4,0.4l-2.3,2.3
			L69,27.3z"/>
		<path class="st4" d="M73.3,23.9L72.1,25l-0.4-0.4l2.8-2.8l0.4,0.4l-1.2,1.2l3.4,3.4l-0.5,0.5L73.3,23.9z"/>
	</g>
</g>
</svg>
