<?xml version="1.0" encoding="utf-8"?>
<!-- Generator: Adobe Illustrator 23.0.6, SVG Export Plug-In . SVG Version: 6.00 Build 0)  -->
<svg version="1.1" id="图层_1" xmlns="http://www.w3.org/2000/svg" xmlns:xlink="http://www.w3.org/1999/xlink" x="0px" y="0px"
	 viewBox="0 0 86 102" style="enable-background:new 0 0 86 102;" xml:space="preserve">
<style type="text/css">
	.st0{fill:#A5ACC1;fill-opacity:0.6;}
	.st1{fill-rule:evenodd;clip-rule:evenodd;fill:#F9C563;}
	.st2{fill-rule:evenodd;clip-rule:evenodd;fill:#FFFFFF;}
	.st3{opacity:0.6;}
	.st4{fill:#A5ACC1;}
</style>
<g>
	<path class="st0" d="M83,0H3C1.3,0,0,1.3,0,3v96c0,1.7,1.3,3,3,3h80c1.7,0,3-1.3,3-3V3C86,1.3,84.7,0,83,0z M83,1c1.1,0,2,0.9,2,2
		v96c0,1.1-0.9,2-2,2H3c-1.1,0-2-0.9-2-2V3c0-1.1,0.9-2,2-2H83z"/>
	<path class="st1" d="M1,12L12,1h23L1,35V12z"/>
	<path class="st2" d="M10.4,9.4c0.4-0.4,1-0.4,1.4,0l4.2,4.2c0.4,0.4,0.4,1,0,1.4s-1,0.4-1.4,0l-4.2-4.2C10,10.4,10,9.8,10.4,9.4z
		 M14.6,5.1c1.2-1.2,3.1-1.2,4.2,0s1.2,3.1,0,4.2L18.1,10l0.7,0.7c0.4,0.4,0.4,1,0,1.4s-1,0.4-1.4,0l-4.9-4.9L14.6,5.1z M7.5,12.2
		c0.4-0.4,1-0.4,1.4,0l2.8,2.8c0.1,0.1,0.1,0.1,0.2,0.2c0.1,0.2,0.1,0.3,0.1,0.5v2.8c0,0.3-0.1,0.5-0.3,0.7l-0.1,0.1
		c-0.2,0.2-0.4,0.3-0.7,0.3H8.1c-0.1,0-0.1,0-0.2,0c-0.2,0-0.4-0.1-0.6-0.3l-2.8-2.8c-0.4-0.4-0.4-1,0-1.4s1-0.4,1.4,0l2.5,2.5h1.4
		v-1.4l-2.5-2.5C7.1,13.2,7.1,12.6,7.5,12.2z M16,6.5l-0.7,0.7l1.4,1.4l0.7-0.7c0.4-0.4,0.4-1,0-1.4C17,6.1,16.4,6.1,16,6.5z"/>
</g>
<g class="st3">
	<g>
		<path class="st4" d="M12.4,51.2c-1.2-1.2-1.3-2.7-0.3-3.7c0.5-0.5,1.1-0.6,1.5-0.6l0.1,0.6c-0.4,0-0.8,0.1-1.1,0.4
			c-0.7,0.7-0.6,1.8,0.3,2.8c1,1,2,1.1,2.8,0.4c0.4-0.4,0.5-0.8,0.5-1.3h0.6c0,0.7-0.1,1.2-0.6,1.7C15.1,52.5,13.6,52.5,12.4,51.2z"
			/>
		<path class="st4" d="M15.5,48.1c-1.2-1.2-1.3-2.6-0.3-3.6s2.4-0.9,3.6,0.3c1.2,1.2,1.3,2.7,0.4,3.6C18.2,49.4,16.7,49.3,15.5,48.1
			z M18.3,45.3c-1-1-2-1.1-2.7-0.4c-0.7,0.7-0.5,1.7,0.4,2.7c1,1,2,1.1,2.7,0.4C19.4,47.3,19.2,46.2,18.3,45.3z"/>
		<path class="st4" d="M17.7,42.1l0.5-0.5l3.8,1l1.2,0.4l0,0c-0.4-0.4-0.9-0.8-1.3-1.1l-2-2l0.5-0.5l3.8,3.8l-0.5,0.5l-3.8-1
			l-1.2-0.4l0,0c0.4,0.4,0.8,0.7,1.3,1.1l2,2l-0.5,0.5L17.7,42.1z"/>
		<path class="st4" d="M21.5,38.3l2.2-2.2l0.4,0.4l-1.7,1.7l1.3,1.3l1.5-1.5l0.4,0.4l-1.5,1.5l1.7,1.7l-0.5,0.5L21.5,38.3z"/>
		<path class="st4" d="M24.3,35.4l0.5-0.5l3.8,3.8l-0.5,0.5L24.3,35.4z"/>
		<path class="st4" d="M25.9,33.9l1-1c1.2-1.2,2.5-1.1,3.7,0.1c1.2,1.2,1.3,2.6,0.1,3.7l-1,1L25.9,33.9z M30.2,36.4
			c0.9-0.9,0.8-1.9-0.2-2.9s-1.9-1.1-2.9-0.2l-0.4,0.4l3,3L30.2,36.4z"/>
		<path class="st4" d="M29.4,30.3l2.2-2.2l0.4,0.4l-1.7,1.7l1.2,1.2L33,30l0.4,0.4L32,31.8l1.4,1.4l1.8-1.8l0.4,0.4l-2.3,2.3
			L29.4,30.3z"/>
		<path class="st4" d="M32.5,27.3l0.5-0.5l3.8,1l1.2,0.4l0,0c-0.4-0.4-0.9-0.8-1.3-1.1l-2-2l0.5-0.5l3.8,3.8l-0.5,0.5l-3.8-1
			l-1.2-0.4l0,0c0.4,0.4,0.8,0.7,1.3,1.1l2,2l-0.5,0.5L32.5,27.3z"/>
		<path class="st4" d="M37.5,23.1l-1.2,1.2l-0.4-0.4l2.8-2.8l0.4,0.4L38,22.6l3.4,3.4l-0.5,0.5L37.5,23.1z"/>
		<path class="st4" d="M39.4,20.4l0.5-0.5l3.8,3.8l-0.5,0.5L39.4,20.4z"/>
		<path class="st4" d="M45.3,19.8l-1.4,1.4l0.8,1.5l-0.5,0.5l-2.5-5.1l0.5-0.5l5.1,2.5l-0.5,0.5L45.3,19.8z M44.8,19.5L44,19.1
			c-0.6-0.3-1.1-0.6-1.7-0.9l0,0c0.3,0.6,0.6,1.1,0.9,1.7l0.4,0.8L44.8,19.5z"/>
		<path class="st4" d="M44.1,15.7l0.5-0.5l3.4,3.4l1.7-1.7l0.4,0.4l-2.2,2.2L44.1,15.7z"/>
	</g>
</g>
<g class="st3">
	<g>
		<path class="st4" d="M41.4,90.2c-1.2-1.2-1.3-2.7-0.3-3.7c0.5-0.5,1.1-0.6,1.5-0.6l0.1,0.6c-0.4,0-0.8,0.1-1.1,0.4
			c-0.7,0.7-0.6,1.8,0.3,2.8c1,1,2,1.1,2.8,0.4c0.4-0.4,0.5-0.8,0.5-1.3h0.6c0,0.7-0.1,1.2-0.6,1.7C44.1,91.5,42.6,91.5,41.4,90.2z"
			/>
		<path class="st4" d="M44.5,87.1c-1.2-1.2-1.3-2.6-0.3-3.6s2.4-0.9,3.6,0.3c1.2,1.2,1.3,2.7,0.4,3.6C47.2,88.4,45.8,88.3,44.5,87.1
			z M47.3,84.3c-1-1-2-1.1-2.7-0.4s-0.5,1.7,0.4,2.7c1,1,2,1.1,2.7,0.4S48.3,85.3,47.3,84.3z"/>
		<path class="st4" d="M46.7,81.1l0.5-0.5l3.8,1l1.2,0.4l0,0c-0.4-0.4-0.9-0.8-1.3-1.1l-2-2l0.5-0.5l3.8,3.8l-0.5,0.5l-3.8-1
			l-1.2-0.4l0,0c0.4,0.4,0.8,0.7,1.2,1.1l2,2l-0.5,0.5L46.7,81.1z"/>
		<path class="st4" d="M50.5,77.3l2.2-2.2l0.4,0.4l-1.7,1.7l1.3,1.3l1.5-1.5l0.4,0.4L53.1,79l1.7,1.7l-0.5,0.5L50.5,77.3z"/>
		<path class="st4" d="M53.4,74.5l0.5-0.5l3.8,3.8l-0.5,0.5L53.4,74.5z"/>
		<path class="st4" d="M54.9,72.9l1-1c1.2-1.2,2.5-1.1,3.7,0.1s1.3,2.6,0.1,3.7l-1,1L54.9,72.9z M59.2,75.4c0.9-0.9,0.8-1.9-0.2-2.9
			s-1.9-1.1-2.9-0.2l-0.4,0.4l3,3L59.2,75.4z"/>
		<path class="st4" d="M58.5,69.4l2.2-2.2l0.4,0.4l-1.7,1.7l1.2,1.2L62,69l0.4,0.4L61,70.9l1.4,1.4l1.8-1.8l0.4,0.4l-2.3,2.3
			L58.5,69.4z"/>
		<path class="st4" d="M61.5,66.3l0.5-0.5l3.8,1l1.2,0.4l0,0c-0.4-0.4-0.9-0.8-1.3-1.1l-2-2l0.5-0.5l3.8,3.8l-0.5,0.5l-3.8-1
			l-1.2-0.4l0,0c0.4,0.4,0.8,0.7,1.3,1.1l2,2l-0.5,0.5L61.5,66.3z"/>
		<path class="st4" d="M66.5,62.1l-1.2,1.2l-0.4-0.4l2.8-2.8l0.4,0.4L67,61.7l3.4,3.4l-0.5,0.5L66.5,62.1z"/>
		<path class="st4" d="M68.4,59.4l0.5-0.5l3.8,3.8l-0.5,0.5L68.4,59.4z"/>
		<path class="st4" d="M74.3,58.8l-1.4,1.4l0.8,1.5l-0.5,0.5l-2.5-5.1l0.5-0.5l5.1,2.5l-0.5,0.5L74.3,58.8z M73.8,58.5L73,58.1
			c-0.6-0.3-1.1-0.6-1.7-0.9l0,0c0.3,0.6,0.6,1.1,0.9,1.7l0.4,0.8L73.8,58.5z"/>
		<path class="st4" d="M73.1,54.7l0.5-0.5l3.4,3.4l1.7-1.7l0.4,0.4l-2.2,2.2L73.1,54.7z"/>
	</g>
</g>
<g class="st3">
	<g>
		<path class="st4" d="M4.8,92.9c-1.2-1.2-1.3-2.7-0.3-3.7C5,88.7,5.6,88.6,6,88.6l0.1,0.6c-0.4,0-0.8,0.1-1.1,0.4
			c-0.7,0.7-0.6,1.8,0.3,2.8c1,1,2,1.1,2.8,0.4c0.4-0.4,0.5-0.8,0.5-1.3h0.6c0,0.7-0.1,1.2-0.6,1.7C7.5,94.2,6.1,94.1,4.8,92.9z"/>
		<path class="st4" d="M8,89.7c-1.2-1.2-1.3-2.6-0.3-3.6s2.4-0.9,3.6,0.3c1.2,1.2,1.3,2.7,0.4,3.6C10.6,91.1,9.2,91,8,89.7z
			 M10.7,87c-1-1-2-1.1-2.7-0.4s-0.5,1.7,0.4,2.7c1,1,2,1.1,2.7,0.4C11.9,89,11.7,87.9,10.7,87z"/>
		<path class="st4" d="M10.2,83.8l0.5-0.5l3.8,1l1.2,0.4l0,0c-0.4-0.4-0.9-0.8-1.3-1.1l-2-2l0.5-0.5l3.8,3.8l-0.5,0.5l-3.8-1
			L11.2,84l0,0c0.4,0.4,0.8,0.7,1.3,1.1l2,2L14,87.6L10.2,83.8z"/>
		<path class="st4" d="M13.9,80l2.2-2.2l0.4,0.4l-1.7,1.7l1.3,1.3l1.5-1.5l0.4,0.4l-1.5,1.5l1.7,1.7l-0.5,0.5L13.9,80z"/>
		<path class="st4" d="M16.8,77.1l0.5-0.5l3.8,3.8l-0.5,0.5L16.8,77.1z"/>
		<path class="st4" d="M18.3,75.6l1-1c1.2-1.2,2.5-1.1,3.7,0.1s1.3,2.6,0.1,3.7l-1,1L18.3,75.6z M22.7,78.1c0.9-0.9,0.8-1.9-0.2-2.9
			s-1.9-1.1-2.9-0.2l-0.4,0.4l3,3L22.7,78.1z"/>
		<path class="st4" d="M21.9,72l2.2-2.2l0.4,0.4l-1.7,1.7l1.2,1.2l1.4-1.4l0.4,0.4l-1.4,1.4l1.4,1.4l1.8-1.8l0.4,0.4l-2.3,2.3
			L21.9,72z"/>
		<path class="st4" d="M25,69l0.5-0.5l3.8,1l1.2,0.4l0,0c-0.4-0.4-0.9-0.8-1.3-1.1l-2-2l0.5-0.5l3.8,3.8L31,70.6l-3.8-1L26,69.2l0,0
			c0.4,0.4,0.8,0.7,1.3,1.1l2,2l-0.5,0.5L25,69z"/>
		<path class="st4" d="M29.9,64.8L28.8,66l-0.4-0.4l2.8-2.8l0.4,0.4l-1.2,1.2l3.4,3.4l-0.5,0.5L29.9,64.8z"/>
		<path class="st4" d="M31.8,62.1l0.5-0.5l3.8,3.8l-0.5,0.5L31.8,62.1z"/>
		<path class="st4" d="M37.8,61.5l-1.4,1.4l0.8,1.5l-0.5,0.5l-2.5-5.1l0.5-0.5l5.1,2.5l-0.5,0.5L37.8,61.5z M37.3,61.2l-0.8-0.4
			c-0.6-0.3-1.1-0.6-1.7-0.9l0,0c0.3,0.6,0.6,1.1,0.9,1.7l0.4,0.8L37.3,61.2z"/>
		<path class="st4" d="M36.5,57.4l0.5-0.5l3.4,3.4l1.7-1.7l0.4,0.4l-2.2,2.2L36.5,57.4z"/>
	</g>
</g>
<g class="st3">
	<g>
		<path class="st4" d="M45,51.2c-1.2-1.2-1.3-2.7-0.3-3.7c0.5-0.5,1.1-0.6,1.5-0.6l0.1,0.6c-0.4,0-0.8,0.1-1.1,0.4
			c-0.7,0.7-0.6,1.8,0.3,2.8c1,1,2,1.1,2.8,0.4c0.4-0.4,0.5-0.8,0.5-1.3h0.6c0,0.7-0.1,1.2-0.6,1.7C47.7,52.5,46.2,52.5,45,51.2z"/>
		<path class="st4" d="M48.1,48.1c-1.2-1.2-1.3-2.6-0.3-3.6s2.4-0.9,3.6,0.3c1.2,1.2,1.3,2.7,0.4,3.6C50.8,49.4,49.3,49.3,48.1,48.1
			z M50.9,45.3c-1-1-2-1.1-2.7-0.4c-0.7,0.7-0.5,1.7,0.4,2.7c1,1,2,1.1,2.7,0.4C52,47.3,51.8,46.2,50.9,45.3z"/>
		<path class="st4" d="M50.3,42.1l0.5-0.5l3.8,1l1.2,0.4l0,0c-0.4-0.4-0.9-0.8-1.3-1.1l-2-2l0.5-0.5l3.8,3.8l-0.5,0.5l-3.8-1
			l-1.2-0.4l0,0c0.4,0.4,0.8,0.7,1.2,1.1l2,2L54,45.9L50.3,42.1z"/>
		<path class="st4" d="M54.1,38.3l2.2-2.2l0.4,0.4L55,38.2l1.3,1.3l1.5-1.5l0.4,0.4l-1.5,1.5l1.7,1.7l-0.5,0.5L54.1,38.3z"/>
		<path class="st4" d="M56.9,35.4l0.5-0.5l3.8,3.8l-0.5,0.5L56.9,35.4z"/>
		<path class="st4" d="M58.5,33.9l1-1c1.2-1.2,2.5-1.1,3.7,0.1c1.2,1.2,1.3,2.6,0.1,3.7l-1,1L58.5,33.9z M62.8,36.4
			c0.9-0.9,0.8-1.9-0.2-2.9s-1.9-1.1-2.9-0.2l-0.4,0.4l3,3L62.8,36.4z"/>
		<path class="st4" d="M62,30.3l2.2-2.2l0.4,0.4l-1.7,1.7l1.2,1.2l1.4-1.4l0.4,0.4l-1.4,1.4l1.4,1.4l1.8-1.8l0.4,0.4l-2.3,2.3
			L62,30.3z"/>
		<path class="st4" d="M65.1,27.3l0.5-0.5l3.8,1l1.2,0.4l0,0c-0.4-0.4-0.9-0.8-1.3-1.1l-2-2l0.5-0.5l3.8,3.8l-0.5,0.5l-3.8-1
			l-1.2-0.4l0,0c0.4,0.4,0.8,0.7,1.3,1.1l2,2l-0.5,0.5L65.1,27.3z"/>
		<path class="st4" d="M70.1,23.1l-1.2,1.2l-0.4-0.4l2.8-2.8l0.4,0.4l-1.2,1.2l3.4,3.4l-0.5,0.5L70.1,23.1z"/>
		<path class="st4" d="M72,20.4l0.5-0.5l3.8,3.8l-0.5,0.5L72,20.4z"/>
		<path class="st4" d="M77.9,19.8l-1.4,1.4l0.8,1.5l-0.5,0.5l-2.5-5.1l0.5-0.5l5.1,2.5l-0.5,0.5L77.9,19.8z M77.4,19.5l-0.8-0.4
			c-0.6-0.3-1.1-0.6-1.7-0.9l0,0c0.3,0.6,0.6,1.1,0.9,1.7l0.4,0.8L77.4,19.5z"/>
		<path class="st4" d="M76.7,15.7l0.5-0.5l3.4,3.4l1.7-1.7l0.4,0.4l-2.2,2.2L76.7,15.7z"/>
	</g>
</g>
</svg>
