<?xml version="1.0" encoding="utf-8"?>
<!-- Generator: Adobe Illustrator 23.0.6, SVG Export Plug-In . SVG Version: 6.00 Build 0)  -->
<svg version="1.1" id="图层_1" xmlns="http://www.w3.org/2000/svg" xmlns:xlink="http://www.w3.org/1999/xlink" x="0px" y="0px"
	 viewBox="0 0 86 102" style="enable-background:new 0 0 86 102;" xml:space="preserve">
<style type="text/css">
	.st0{fill:#A5ACC1;fill-opacity:0.6;}
	.st1{fill-rule:evenodd;clip-rule:evenodd;fill:#F9C563;}
	.st2{fill-rule:evenodd;clip-rule:evenodd;fill:#FFFFFF;}
	.st3{opacity:0.6;}
	.st4{fill:#A5ACC1;}
</style>
<title>PDF-优化添加3</title>
<g>
	<path class="st0" d="M83,0H3C1.3,0,0,1.3,0,3v96c0,1.7,1.3,3,3,3h80c1.7,0,3-1.3,3-3V3C86,1.3,84.7,0,83,0z M83,1c1.1,0,2,0.9,2,2
		v96c0,1.1-0.9,2-2,2H3c-1.1,0-2-0.9-2-2V3c0-1.1,0.9-2,2-2H83z"/>
	<path class="st1" d="M1,12L12,1h23L1,35V12z"/>
	<path class="st2" d="M10.4,9.4c0.4-0.4,1-0.4,1.4,0l4.2,4.2c0.4,0.4,0.4,1,0,1.4s-1,0.4-1.4,0l-4.2-4.2C10,10.4,10,9.8,10.4,9.4z
		 M14.6,5.1c1.2-1.2,3.1-1.2,4.2,0s1.2,3.1,0,4.2L18.1,10l0.7,0.7c0.4,0.4,0.4,1,0,1.4s-1,0.4-1.4,0l-4.9-4.9L14.6,5.1z M7.5,12.2
		c0.4-0.4,1-0.4,1.4,0l2.8,2.8c0.1,0.1,0.1,0.1,0.2,0.2c0.1,0.2,0.1,0.3,0.1,0.5v2.8c0,0.3-0.1,0.5-0.3,0.7l-0.1,0.1
		c-0.2,0.2-0.4,0.3-0.7,0.3H8.1c-0.1,0-0.1,0-0.2,0c-0.2,0-0.4-0.1-0.6-0.3l-2.8-2.8c-0.4-0.4-0.4-1,0-1.4s1-0.4,1.4,0l2.5,2.5h1.4
		v-1.4l-2.5-2.5C7.1,13.2,7.1,12.6,7.5,12.2z M16,6.5l-0.7,0.7l1.4,1.4l0.7-0.7c0.4-0.4,0.4-1,0-1.4C17,6.1,16.4,6.1,16,6.5z"/>
</g>
<g class="st3">
	<g>
		<path class="st4" d="M12.8,50.8l1-1c1.2-1.2,2.5-1.1,3.7,0.1c1.2,1.2,1.3,2.6,0.1,3.7l-1,1L12.8,50.8z M17.1,53.3
			c0.9-0.9,0.8-1.9-0.2-2.9S15,49.3,14,50.2l-0.4,0.4l3,3L17.1,53.3z"/>
		<path class="st4" d="M18.1,49.3c-1.2-1.2-1.3-2.6-0.3-3.6s2.4-0.9,3.6,0.3s1.3,2.7,0.4,3.6C20.7,50.6,19.3,50.5,18.1,49.3z
			 M20.8,46.5c-1-1-2-1.1-2.7-0.4c-0.7,0.7-0.5,1.7,0.4,2.7c1,1,2,1.1,2.7,0.4C21.9,48.6,21.8,47.5,20.8,46.5z"/>
		<path class="st4" d="M21.4,42.2l0.5-0.5l3.8,1l1.2,0.4l0,0c-0.4-0.4-0.9-0.8-1.3-1.1l-2-2l0.5-0.5l3.8,3.8l-0.5,0.5l-3.8-1
			l-1.2-0.4l0,0c0.4,0.4,0.8,0.7,1.3,1.1l2,2L25.2,46L21.4,42.2z"/>
		<path class="st4" d="M26.9,40.5c-1.2-1.2-1.3-2.6-0.3-3.6s2.4-0.9,3.6,0.3s1.3,2.7,0.4,3.6S28.1,41.7,26.9,40.5z M29.6,37.7
			c-1-1-2-1.1-2.7-0.4C26.2,38,26.4,39,27.3,40c1,1,2,1.1,2.7,0.4C30.7,39.8,30.6,38.7,29.6,37.7z"/>
		<path class="st4" d="M30.1,34.3l-1.2,1.2L28.5,35l2.8-2.8l0.4,0.4l-1.2,1.2l3.4,3.4l-0.5,0.5L30.1,34.3z"/>
		<path class="st4" d="M34.9,32.5c-1.2-1.2-1.3-2.7-0.3-3.7c0.5-0.5,1.1-0.6,1.5-0.6l0.1,0.6c-0.4,0-0.8,0.1-1.1,0.4
			C34.3,30,34.4,31,35.4,32s2,1.1,2.8,0.4c0.4-0.4,0.5-0.8,0.5-1.3h0.6c0,0.7-0.1,1.2-0.6,1.7C37.6,33.8,36.1,33.8,34.9,32.5z"/>
		<path class="st4" d="M38,29.3c-1.2-1.2-1.3-2.6-0.3-3.6s2.4-0.9,3.6,0.3c1.2,1.2,1.3,2.7,0.4,3.6S39.2,30.6,38,29.3z M40.8,26.6
			c-1-1-2-1.1-2.7-0.4s-0.5,1.7,0.4,2.7c1,1,2,1.1,2.7,0.4S41.7,27.5,40.8,26.6z"/>
		<path class="st4" d="M40.2,23.4l1.1-1.1c0.9-0.9,1.7-1.1,2.6-0.3c0.8,0.8,0.6,1.8-0.2,2.6L43,25.2l1.5,1.5L44,27.2L40.2,23.4z
			 M43.2,24.2c0.7-0.7,0.7-1.2,0.2-1.8c-0.6-0.6-1.1-0.4-1.7,0.3l-0.5,0.5l1.5,1.5L43.2,24.2z"/>
		<path class="st4" d="M46.4,21.8l-3.5-1.2l0.5-0.5l1.6,0.6c0.4,0.2,0.8,0.3,1.2,0.5l0,0c-0.2-0.4-0.3-0.8-0.5-1.2l-0.6-1.6l0.5-0.5
			l1.2,3.5l1.5,1.5l-0.5,0.5L46.4,21.8z"/>
	</g>
</g>
<g class="st3">
	<g>
		<path class="st4" d="M41.4,88.8l1-1c1.2-1.2,2.5-1.1,3.7,0.1s1.3,2.6,0.1,3.7l-1,1L41.4,88.8z M45.7,91.3c0.9-0.9,0.8-1.9-0.2-2.9
			s-1.9-1.1-2.9-0.2l-0.4,0.4l3,3L45.7,91.3z"/>
		<path class="st4" d="M46.6,87.3c-1.2-1.2-1.3-2.6-0.3-3.6s2.4-0.9,3.6,0.3c1.2,1.2,1.3,2.7,0.4,3.6C49.3,88.6,47.8,88.5,46.6,87.3
			z M49.4,84.6c-1-1-2-1.1-2.7-0.4s-0.5,1.7,0.4,2.7c1,1,2,1.1,2.7,0.4C50.5,86.6,50.3,85.5,49.4,84.6z"/>
		<path class="st4" d="M50,80.2l0.5-0.5l3.8,1l1.2,0.4l0,0c-0.4-0.4-0.9-0.8-1.3-1.1l-2-2l0.5-0.5l3.8,3.8L56,81.8l-3.8-1L51,80.4
			l0,0c0.4,0.4,0.8,0.7,1.3,1.1l2,2L53.8,84L50,80.2z"/>
		<path class="st4" d="M55.4,78.5c-1.2-1.2-1.3-2.6-0.3-3.6s2.4-0.9,3.6,0.3c1.2,1.2,1.3,2.7,0.4,3.6S56.6,79.8,55.4,78.5z
			 M58.2,75.8c-1-1-2-1.1-2.7-0.4s-0.5,1.7,0.4,2.7c1,1,2,1.1,2.7,0.4C59.3,77.8,59.1,76.7,58.2,75.8z"/>
		<path class="st4" d="M58.7,72.3l-1.2,1.2L57.1,73l2.8-2.8l0.4,0.4l-1.2,1.2l3.4,3.4L62,75.7L58.7,72.3z"/>
		<path class="st4" d="M63.4,70.5c-1.2-1.2-1.3-2.7-0.3-3.7c0.5-0.5,1.1-0.6,1.5-0.6l0.1,0.6c-0.4,0-0.8,0.1-1.1,0.4
			C62.8,68,63,69.1,63.9,70c1,1,2,1.1,2.8,0.4c0.4-0.4,0.5-0.8,0.5-1.3h0.6c0,0.7-0.1,1.2-0.6,1.7C66.1,71.8,64.7,71.8,63.4,70.5z"
			/>
		<path class="st4" d="M66.6,67.4c-1.2-1.2-1.3-2.6-0.3-3.6s2.4-0.9,3.6,0.3c1.2,1.2,1.3,2.7,0.4,3.6S67.8,68.6,66.6,67.4z
			 M69.3,64.6c-1-1-2-1.1-2.7-0.4s-0.5,1.7,0.4,2.7c1,1,2,1.1,2.7,0.4C70.5,66.6,70.3,65.5,69.3,64.6z"/>
		<path class="st4" d="M68.8,61.4l1.1-1.1c0.9-0.9,1.7-1.1,2.6-0.3c0.8,0.8,0.6,1.8-0.2,2.6l-0.6,0.6l1.5,1.5l-0.5,0.5L68.8,61.4z
			 M71.7,62.2c0.7-0.7,0.7-1.2,0.2-1.8c-0.6-0.6-1.1-0.4-1.7,0.3l-0.5,0.5l1.5,1.5L71.7,62.2z"/>
		<path class="st4" d="M74.9,59.9l-3.5-1.2l0.5-0.5l1.6,0.6c0.4,0.2,0.8,0.3,1.2,0.5l0,0c-0.2-0.4-0.3-0.8-0.5-1.2l-0.6-1.6l0.5-0.5
			l1.2,3.5l1.5,1.5l-0.5,0.5L74.9,59.9z"/>
	</g>
</g>
<g class="st3">
	<g>
		<path class="st4" d="M4.9,92.1l1-1C7.1,90,8.4,90,9.6,91.2s1.3,2.6,0.1,3.7l-1,1L4.9,92.1z M9.3,94.6c0.9-0.9,0.8-1.9-0.2-2.9
			s-1.9-1.1-2.9-0.2L5.8,92l3,3L9.3,94.6z"/>
		<path class="st4" d="M10.2,90.6C9,89.4,8.9,88,9.9,87s2.4-0.9,3.6,0.3c1.2,1.2,1.3,2.7,0.4,3.6C12.9,92,11.4,91.9,10.2,90.6z
			 M13,87.9c-1-1-2-1.1-2.7-0.4s-0.5,1.7,0.4,2.7c1,1,2,1.1,2.7,0.4C14.1,89.9,13.9,88.8,13,87.9z"/>
		<path class="st4" d="M13.6,83.5l0.5-0.5l3.8,1l1.2,0.4l0,0c-0.4-0.4-0.9-0.8-1.3-1.1l-2-2l0.5-0.5l3.8,3.8l-0.5,0.5l-3.8-1
			l-1.2-0.4l0,0c0.4,0.4,0.8,0.7,1.3,1.1l2,2l-0.5,0.5L13.6,83.5z"/>
		<path class="st4" d="M19,81.9c-1.2-1.2-1.3-2.6-0.3-3.6s2.4-0.9,3.6,0.3c1.2,1.2,1.3,2.7,0.4,3.6S20.2,83.1,19,81.9z M21.8,79.1
			c-1-1-2-1.1-2.7-0.4s-0.5,1.7,0.4,2.7c1,1,2,1.1,2.7,0.4S22.7,80,21.8,79.1z"/>
		<path class="st4" d="M22.2,75.6L21,76.8l-0.4-0.4l2.8-2.8l0.4,0.4l-1.2,1.2l3.4,3.4L25.7,79L22.2,75.6z"/>
		<path class="st4" d="M27,73.9c-1.2-1.2-1.3-2.7-0.3-3.7c0.5-0.5,1.1-0.6,1.5-0.6l0.1,0.6c-0.4,0-0.8,0.1-1.1,0.4
			c-0.7,0.7-0.6,1.8,0.3,2.8c1,1,2,1.1,2.8,0.4c0.4-0.4,0.5-0.8,0.5-1.3h0.6c0,0.7-0.1,1.2-0.6,1.7C29.7,75.1,28.3,75.1,27,73.9z"/>
		<path class="st4" d="M30.2,70.7c-1.2-1.2-1.3-2.6-0.3-3.6s2.4-0.9,3.6,0.3s1.3,2.7,0.4,3.6S31.4,71.9,30.2,70.7z M32.9,67.9
			c-1-1-2-1.1-2.7-0.4s-0.5,1.7,0.4,2.7c1,1,2,1.1,2.7,0.4S33.9,68.9,32.9,67.9z"/>
		<path class="st4" d="M32.3,64.7l1.1-1.1c0.9-0.9,1.7-1.1,2.6-0.3c0.8,0.8,0.6,1.8-0.2,2.6l-0.6,0.6l1.5,1.5l-0.5,0.5L32.3,64.7z
			 M35.3,65.6c0.7-0.7,0.7-1.2,0.2-1.8c-0.6-0.6-1.1-0.4-1.7,0.3l-0.5,0.5l1.5,1.5L35.3,65.6z"/>
		<path class="st4" d="M38.5,63.2L35.1,62l0.5-0.5l1.6,0.6c0.4,0.2,0.8,0.3,1.2,0.5l0,0c-0.2-0.4-0.3-0.8-0.5-1.2l-0.6-1.6l0.5-0.5
			l1.2,3.5l1.5,1.5L40,64.7L38.5,63.2z"/>
	</g>
</g>
<g class="st3">
	<g>
		<path class="st4" d="M44.9,51.4l1-1c1.2-1.2,2.5-1.1,3.7,0.1c1.2,1.2,1.3,2.6,0.1,3.7l-1,1L44.9,51.4z M49.3,53.9
			c0.9-0.9,0.8-1.9-0.2-2.9s-1.9-1.1-2.9-0.2l-0.4,0.4l3,3L49.3,53.9z"/>
		<path class="st4" d="M50.2,50c-1.2-1.2-1.3-2.6-0.3-3.6s2.4-0.9,3.6,0.3c1.2,1.2,1.3,2.7,0.4,3.6C52.9,51.3,51.4,51.2,50.2,50z
			 M53,47.2c-1-1-2-1.1-2.7-0.4c-0.7,0.7-0.5,1.7,0.4,2.7c1,1,2,1.1,2.7,0.4C54.1,49.2,53.9,48.1,53,47.2z"/>
		<path class="st4" d="M53.5,42.8l0.5-0.5l3.8,1l1.2,0.4l0,0c-0.4-0.4-0.9-0.8-1.3-1.1l-2-2l0.5-0.5l3.8,3.8l-0.5,0.5l-3.8-1
			L54.6,43l0,0c0.4,0.4,0.8,0.7,1.2,1.1l2,2l-0.5,0.5L53.5,42.8z"/>
		<path class="st4" d="M59,41.2c-1.2-1.2-1.3-2.6-0.3-3.6s2.4-0.9,3.6,0.3c1.2,1.2,1.3,2.7,0.4,3.6S60.2,42.4,59,41.2z M61.7,38.4
			c-1-1-2-1.1-2.7-0.4c-0.7,0.7-0.5,1.7,0.4,2.7c1,1,2,1.1,2.7,0.4C62.9,40.4,62.7,39.4,61.7,38.4z"/>
		<path class="st4" d="M62.2,34.9L61,36.1l-0.4-0.4l2.8-2.8l0.4,0.4l-1.2,1.2l3.4,3.4l-0.5,0.5L62.2,34.9z"/>
		<path class="st4" d="M67,33.2c-1.2-1.2-1.3-2.7-0.3-3.7c0.5-0.5,1.1-0.6,1.5-0.6l0.1,0.6c-0.4,0-0.8,0.1-1.1,0.4
			c-0.7,0.7-0.6,1.8,0.3,2.8c1,1,2,1.1,2.8,0.4c0.4-0.4,0.5-0.8,0.5-1.3h0.6c0,0.7-0.1,1.2-0.6,1.7C69.7,34.4,68.2,34.4,67,33.2z"/>
		<path class="st4" d="M70.1,30c-1.2-1.2-1.3-2.6-0.3-3.6s2.4-0.9,3.6,0.3c1.2,1.2,1.3,2.7,0.4,3.6S71.4,31.2,70.1,30z M72.9,27.2
			c-1-1-2-1.1-2.7-0.4s-0.5,1.7,0.4,2.7c1,1,2,1.1,2.7,0.4C74,29.3,73.9,28.2,72.9,27.2z"/>
		<path class="st4" d="M72.3,24l1.1-1.1c0.9-0.9,1.7-1.1,2.6-0.3c0.8,0.8,0.6,1.8-0.2,2.6l-0.6,0.6l1.5,1.5l-0.5,0.5L72.3,24z
			 M75.3,24.9c0.7-0.7,0.7-1.2,0.2-1.8c-0.6-0.6-1.1-0.4-1.7,0.3l-0.5,0.5l1.5,1.5L75.3,24.9z"/>
		<path class="st4" d="M78.5,22.5L75,21.3l0.5-0.5l1.6,0.6c0.4,0.2,0.8,0.3,1.2,0.5l0,0c-0.2-0.4-0.3-0.8-0.5-1.2L77.3,19l0.5-0.5
			L79,22l1.5,1.5L80,24L78.5,22.5z"/>
	</g>
</g>
</svg>
