<?xml version="1.0" encoding="utf-8"?>
<!-- Generator: Adobe Illustrator 23.0.6, SVG Export Plug-In . SVG Version: 6.00 Build 0)  -->
<svg version="1.1" id="图层_1" xmlns="http://www.w3.org/2000/svg" xmlns:xlink="http://www.w3.org/1999/xlink" x="0px" y="0px"
	 viewBox="0 0 86 102" style="enable-background:new 0 0 86 102;" xml:space="preserve">
<style type="text/css">
	.st0{opacity:0.6;fill:#A5ACC1;enable-background:new    ;}
	.st1{opacity:0.6;enable-background:new    ;}
	.st2{fill:#A5ACC1;}
</style>
<title>PDF-优化添加2</title>
<path class="st0" d="M56.2,36.3C56,36.1,55.8,36,55.5,36h-12V24c0-0.3-0.1-0.5-0.3-0.7C42.9,23,42.5,23,42,23.2h-0.1l-0.1,0.1
	c-0.2,0.2-0.3,0.4-0.3,0.7v12h-12c-0.6,0-1,0.4-1,1c0,0.3,0.1,0.5,0.3,0.7c0.2,0.2,0.4,0.3,0.7,0.3h12v12c0,0.3,0.1,0.5,0.3,0.7
	c0.4,0.4,1,0.4,1.4,0c0.2-0.2,0.3-0.4,0.3-0.7V38h12c0.6,0,1-0.5,1-1C56.5,36.7,56.4,36.5,56.2,36.3L56.2,36.3z"/>
<path class="st0" d="M83.6,102h-3v-1h3v0.5V102L83.6,102z M78.5,102h-3v-1h3V102z M73.6,102h-3v-1h3V102z M68.6,102h-3v-1h3V102z
	 M63.6,102h-3v-1h3V102z M58.6,102h-3v-1h3V102z M53.6,102h-3v-1h3V102z M48.7,102h-3v-1h3V102z M43.7,102h-3v-1h3V102z M38.7,102
	h-3v-1h3V102z M33.7,102h-3v-1h3V102z M28.7,102h-3v-1h3V102z M23.8,102h-3v-1h3V102z M18.8,102h-3v-1h3V102z M13.8,102h-3v-1h3V102
	z M8.8,102h-3v-1h3V102z M3.8,102H2.5c-0.7,0-1.4-0.3-1.8-0.8l0.7-0.7c0.3,0.3,0.7,0.5,1.1,0.5h1.3V102z M85.6,100.8l-0.8-0.5
	c0.2-0.2,0.2-0.5,0.2-0.8v-1.8h1v1.8C86,100,85.9,100.4,85.6,100.8L85.6,100.8z M1,99H0v-3h1V99z M86,95.7h-1v-3h1V95.7z M1,94H0v-3
	h1V94z M86,90.7h-1v-3h1V90.7z M1,89H0v-3h1V89z M86,85.7h-1v-3h1V85.7z M1,84H0v-3h1V84z M86,80.7h-1v-3h1V80.7z M1,79.1H0v-3h1
	V79.1z M86,75.7h-1v-3h1V75.7z M1,74.1H0v-3h1V74.1z M86,70.8h-1v-3h1V70.8z M1,69.1H0v-3h1V69.1z M86,65.8h-1v-3h1V65.8z M1,64.1H0
	v-3h1V64.1z M86,60.8h-1v-3h1V60.8z M1,59.1H0v-3h1V59.1z M86,55.8h-1v-3h1V55.8z M1,54.2H0v-3h1V54.2z M86,50.8h-1v-3h1V50.8z
	 M1,49.2H0v-3h1V49.2z M86,45.9h-1v-3h1V45.9z M1,44.2H0v-3h1V44.2z M86,40.9h-1v-3h1V40.9z M1,39.2H0v-3h1V39.2z M86,35.9h-1v-3h1
	V35.9z M1,34.2H0v-3h1V34.2z M86,30.9h-1v-3h1V30.9z M1,29.3H0v-3h1V29.3z M86,25.9h-1v-3h1V25.9z M1,24.3H0v-3h1V24.3z M86,21h-1
	v-3h1V21z M1,19.3H0v-3h1V19.3z M86,16h-1v-3h1V16z M1,14.3H0v-3h1V14.3z M86,11h-1V8h1V11z M1,9.3H0v-3h1V9.3z M86,6h-1V3h1V6z
	 M1,4.4H0V2.5C0,2,0.1,1.6,0.4,1.2l0.8,0.5C1.1,1.9,1,2.2,1,2.5V4.4z M84.6,1.5C84.3,1.2,83.9,1,83.5,1h-1.3V0h1.3
	c0.7,0,1.4,0.3,1.9,0.8L84.6,1.5z M80.2,1h-3V0h3V1z M75.2,1h-3V0h3V1z M70.2,1h-3V0h3V1z M65.3,1h-3V0h3V1z M60.3,1h-3V0h3V1z
	 M55.3,1h-3V0h3V1z M50.3,1h-3V0h3V1z M45.3,1h-3V0h3V1z M40.4,1h-3V0h3V1z M35.4,1h-3V0h3V1z M30.4,1h-3V0h3V1z M25.4,1h-3V0h3V1z
	 M20.4,1h-3V0h3V1z M15.5,1h-3V0h3V1z M10.5,1h-3V0h3V1z M5.5,1h-3V0h3V1z"/>
<g class="st1">
	<path class="st2" d="M16.4,75.4c0-2.4,1.4-3.8,3.2-3.8c0.9,0,1.6,0.4,2,0.9l-0.5,0.6c-0.4-0.4-0.9-0.7-1.5-0.7
		c-1.4,0-2.3,1.1-2.3,3c0,1.8,0.9,3,2.3,3c0.7,0,1.2-0.3,1.7-0.8l0.5,0.6c-0.6,0.7-1.3,1-2.2,1C17.7,79.2,16.4,77.8,16.4,75.4z"/>
	<path class="st2" d="M23.1,78v-6.9H24V78c0,0.3,0.1,0.4,0.3,0.4c0,0,0.1,0,0.2,0l0.1,0.7c-0.1,0-0.3,0.1-0.5,0.1
		C23.4,79.2,23.1,78.8,23.1,78z"/>
	<path class="st2" d="M25.8,71.9c0-0.4,0.3-0.6,0.6-0.6s0.6,0.2,0.6,0.6c0,0.3-0.3,0.6-0.6,0.6S25.8,72.3,25.8,71.9z M25.9,73.6h0.9
		V79h-0.9V73.6z"/>
	<path class="st2" d="M28.3,76.4c0-1.8,1.2-2.9,2.6-2.9c0.7,0,1.2,0.3,1.6,0.6L32,74.7c-0.3-0.3-0.6-0.5-1.1-0.5
		c-1,0-1.7,0.8-1.7,2.1c0,1.2,0.7,2.1,1.7,2.1c0.5,0,0.9-0.2,1.3-0.5l0.4,0.6c-0.5,0.4-1.1,0.7-1.7,0.7
		C29.4,79.2,28.3,78.2,28.3,76.4z"/>
	<path class="st2" d="M33.8,71.1h0.9v5.4l0,0l2.3-2.9h1l-1.8,2.2l2.1,3.2h-1l-1.6-2.6l-1,1.2V79h-0.9V71.1z"/>
	<path class="st2" d="M41.7,77.4v-3h-0.8v-0.7h0.8l0.1-1.5h0.8v1.5h1.5v0.7h-1.5v3c0,0.7,0.2,1,0.8,1c0.2,0,0.4-0.1,0.6-0.1l0.2,0.7
		c-0.3,0.1-0.7,0.2-1,0.2C42.1,79.2,41.7,78.5,41.7,77.4z"/>
	<path class="st2" d="M44.7,76.4c0-1.8,1.2-2.9,2.5-2.9s2.5,1,2.5,2.9c0,1.8-1.2,2.8-2.5,2.8S44.7,78.2,44.7,76.4z M48.8,76.4
		c0-1.2-0.6-2.1-1.6-2.1s-1.6,0.8-1.6,2.1c0,1.2,0.6,2.1,1.6,2.1S48.8,77.6,48.8,76.4z"/>
	<path class="st2" d="M53.1,77.7c0-1.2,1-1.8,3.3-2c0-0.7-0.2-1.4-1.1-1.4c-0.6,0-1.2,0.3-1.6,0.6l-0.4-0.6c0.5-0.3,1.3-0.7,2.1-0.7
		c1.3,0,1.9,0.9,1.9,2.2v3.3h-0.7l-0.1-0.6l0,0c-0.5,0.4-1.1,0.8-1.8,0.8C53.8,79.2,53.1,78.6,53.1,77.7z M56.4,77.7v-1.5
		c-1.8,0.2-2.4,0.7-2.4,1.4c0,0.6,0.4,0.9,1,0.9C55.5,78.5,55.9,78.2,56.4,77.7z"/>
	<path class="st2" d="M58.7,76.4c0-1.8,1.1-2.9,2.3-2.9c0.6,0,1,0.2,1.5,0.6v-0.9v-2.1h0.9v8h-0.7l-0.1-0.6l0,0
		c-0.4,0.4-1,0.8-1.6,0.8C59.6,79.2,58.7,78.2,58.7,76.4z M62.5,77.7v-2.8c-0.5-0.4-0.9-0.6-1.3-0.6c-0.9,0-1.6,0.8-1.6,2.1
		c0,1.3,0.5,2.1,1.5,2.1C61.6,78.4,62.1,78.2,62.5,77.7z"/>
	<path class="st2" d="M64.9,76.4c0-1.8,1.1-2.9,2.3-2.9c0.6,0,1,0.2,1.5,0.6v-0.9v-2.1h0.9v8h-0.7l-0.1-0.6l0,0
		c-0.4,0.4-1,0.8-1.6,0.8C65.8,79.2,64.9,78.2,64.9,76.4z M68.7,77.7v-2.8c-0.5-0.4-0.9-0.6-1.3-0.6c-0.9,0-1.6,0.8-1.6,2.1
		c0,1.3,0.5,2.1,1.5,2.1C67.8,78.4,68.3,78.2,68.7,77.7z"/>
</g>
</svg>
