<svg xmlns="http://www.w3.org/2000/svg" viewBox="0 0 32 32"><defs><style type="text/css">.a{fill:none;}.b{fill:#8b97af;fill-opacity:0.2;}</style></defs><title>32_缩略图加载</title><rect class="a" width="32" height="32"/><path class="b" d="M16,0A16,16,0,1,1,0,16,16,16,0,0,1,16,0Zm3.713,15.712-.127.116L7.955,27.459a14.006,14.006,0,0,0,20.723-5.513.943.943,0,0,1-.291-.156l-.094-.083-5.879-5.879A2,2,0,0,0,19.713,15.712ZM16,2A14,14,0,0,0,6.4,26.188L18.172,14.414a4,4,0,0,1,5.5-.151l.159.151L29.419,20A14.011,14.011,0,0,0,16,2ZM11.5,7A3.5,3.5,0,1,1,8,10.5,3.5,3.5,0,0,1,11.5,7Zm0,2A1.5,1.5,0,1,0,13,10.5,1.5,1.5,0,0,0,11.5,9Z"/></svg>