<?xml version="1.0" encoding="utf-8"?>
<!-- Generator: Adobe Illustrator 23.0.6, SVG Export Plug-In . SVG Version: 6.00 Build 0)  -->
<svg version="1.1" id="图层_1" xmlns="http://www.w3.org/2000/svg" xmlns:xlink="http://www.w3.org/1999/xlink" x="0px" y="0px"
	 viewBox="0 0 86 102" style="enable-background:new 0 0 86 102;" xml:space="preserve">
<style type="text/css">
	.st0{fill:#A5ACC1;fill-opacity:0.6;}
	.st1{fill-rule:evenodd;clip-rule:evenodd;fill:#F9C563;}
	.st2{fill-rule:evenodd;clip-rule:evenodd;fill:#FFFFFF;}
	.st3{opacity:0.6;}
	.st4{fill:#A5ACC1;}
</style>
<g>
	<path class="st0" d="M83,0H3C1.3,0,0,1.3,0,3v96c0,1.7,1.3,3,3,3h80c1.7,0,3-1.3,3-3V3C86,1.3,84.7,0,83,0z M83,1c1.1,0,2,0.9,2,2
		v96c0,1.1-0.9,2-2,2H3c-1.1,0-2-0.9-2-2V3c0-1.1,0.9-2,2-2H83z"/>
	<path class="st1" d="M1,12L12,1h23L1,35V12z"/>
	<path class="st2" d="M10.4,9.4c0.4-0.4,1-0.4,1.4,0l4.2,4.2c0.4,0.4,0.4,1,0,1.4c-0.4,0.4-1,0.4-1.4,0l-4.2-4.2
		C10,10.4,10,9.8,10.4,9.4z M14.6,5.1c1.2-1.2,3.1-1.2,4.2,0s1.2,3.1,0,4.2L18.1,10l0.7,0.7c0.4,0.4,0.4,1,0,1.4s-1,0.4-1.4,0
		l-4.9-4.9L14.6,5.1z M7.5,12.2c0.4-0.4,1-0.4,1.4,0l2.8,2.8c0.1,0.1,0.1,0.1,0.2,0.2c0.1,0.2,0.1,0.3,0.1,0.5v2.8
		c0,0.3-0.1,0.5-0.3,0.7l-0.1,0.1c-0.2,0.2-0.4,0.3-0.7,0.3H8.1c-0.1,0-0.1,0-0.2,0c-0.2,0-0.4-0.1-0.6-0.3l-2.8-2.8
		c-0.4-0.4-0.4-1,0-1.4s1-0.4,1.4,0l2.5,2.5h1.4v-1.4l-2.5-2.5C7.1,13.2,7.1,12.6,7.5,12.2z M16,6.5l-0.7,0.7l1.4,1.4l0.7-0.7
		c0.4-0.4,0.4-1,0-1.4C17,6.1,16.4,6.1,16,6.5z"/>
</g>
<g class="st3">
	<g>
		<path class="st4" d="M12.1,77.9l1.7-1.7c2.1-2.1,4.5-2,6.6,0.2c2.2,2.2,2.3,4.6,0.3,6.7l-1.8,1.8L12.1,77.9z M19.9,82.4
			c1.6-1.6,1.4-3.4-0.3-5.2c-1.7-1.7-3.5-1.9-5.1-0.3l-0.8,0.8l5.5,5.5L19.9,82.4z"/>
		<path class="st4" d="M21.5,75.2c-2.2-2.2-2.3-4.7-0.6-6.5s4.3-1.6,6.5,0.6s2.4,4.8,0.6,6.5C26.3,77.6,23.7,77.4,21.5,75.2z
			 M26.5,70.3c-1.7-1.7-3.6-2-4.8-0.7c-1.2,1.2-1,3.1,0.7,4.8c1.7,1.7,3.6,2,4.9,0.8C28.5,73.9,28.2,72,26.5,70.3z"/>
		<path class="st4" d="M27.6,62.4l0.9-0.9l6.8,1.8l2.1,0.7l0,0c-0.7-0.6-1.6-1.3-2.3-2.1l-3.6-3.6l0.8-0.8l6.9,6.9l-0.9,0.9
			l-6.8-1.8l-2.2-0.7l0,0c0.7,0.7,1.5,1.3,2.2,2l3.6,3.6l-0.8,0.8L27.6,62.4z"/>
		<path class="st4" d="M37.3,59.4c-2.2-2.2-2.3-4.7-0.6-6.5c1.7-1.7,4.3-1.6,6.5,0.6c2.2,2.2,2.4,4.8,0.6,6.5
			C42.1,61.8,39.5,61.6,37.3,59.4z M42.3,54.5c-1.7-1.7-3.6-2-4.8-0.7c-1.2,1.2-1,3.1,0.7,4.8s3.6,2,4.9,0.8
			C44.3,58.1,44,56.2,42.3,54.5z"/>
		<path class="st4" d="M43.2,48.2l-2.1,2.1l-0.7-0.7l5-5l0.7,0.7L44,47.4l6.1,6.1l-0.9,0.9L43.2,48.2z"/>
		<path class="st4" d="M51.8,45.1c-2.2-2.2-2.3-4.9-0.5-6.6c0.8-0.8,1.9-1.1,2.7-1l0.1,1c-0.7,0-1.5,0.2-2.1,0.7
			c-1.3,1.3-1.1,3.2,0.6,4.9c1.7,1.7,3.6,2,5,0.7c0.7-0.7,0.9-1.4,0.8-2.4l1,0.1c0.1,1.2-0.2,2.2-1.1,3.1
			C56.6,47.3,54,47.3,51.8,45.1z"/>
		<path class="st4" d="M57.4,39.4c-2.2-2.2-2.3-4.7-0.6-6.5c1.7-1.7,4.3-1.6,6.5,0.6c2.2,2.2,2.4,4.8,0.6,6.5
			C62.2,41.7,59.6,41.6,57.4,39.4z M62.4,34.4c-1.7-1.7-3.6-2-4.8-0.7c-1.2,1.2-1,3.1,0.7,4.8s3.6,2,4.9,0.8
			C64.4,38,64.1,36.1,62.4,34.4z"/>
		<path class="st4" d="M61.3,28.6l2-2c1.5-1.5,3.1-2.1,4.6-0.6s1.1,3.2-0.4,4.7l-1.1,1.1l2.7,2.7l-0.9,0.9L61.3,28.6z M66.7,30.1
			c1.2-1.2,1.3-2.2,0.4-3.2c-1-1-1.9-0.7-3.1,0.5l-1,1l2.7,2.7L66.7,30.1z"/>
		<path class="st4" d="M72.5,25.9l-6.3-2.1l0.9-0.9l2.8,1.1c0.7,0.3,1.4,0.6,2.2,0.8l0,0c-0.3-0.8-0.5-1.5-0.8-2.2l-1-2.8l0.9-0.9
			l2.1,6.3l2.7,2.7l-0.9,0.9L72.5,25.9z"/>
	</g>
</g>
</svg>
