<?xml version="1.0" encoding="utf-8"?>
<!-- Generator: Adobe Illustrator 23.0.6, SVG Export Plug-In . SVG Version: 6.00 Build 0)  -->
<svg version="1.1" id="图层_1" xmlns="http://www.w3.org/2000/svg" xmlns:xlink="http://www.w3.org/1999/xlink" x="0px" y="0px"
	 viewBox="0 0 86 102" style="enable-background:new 0 0 86 102;" xml:space="preserve">
<style type="text/css">
	.st0{fill:#A5ACC1;fill-opacity:0.6;}
	.st1{fill-rule:evenodd;clip-rule:evenodd;fill:#F9C563;}
	.st2{fill-rule:evenodd;clip-rule:evenodd;fill:#FFFFFF;}
	.st3{opacity:0.6;}
	.st4{fill:#A5ACC1;}
</style>
<g>
	<path class="st0" d="M83,0H3C1.3,0,0,1.3,0,3v96c0,1.7,1.3,3,3,3h80c1.7,0,3-1.3,3-3V3C86,1.3,84.7,0,83,0z M83,1c1.1,0,2,0.9,2,2
		v96c0,1.1-0.9,2-2,2H3c-1.1,0-2-0.9-2-2V3c0-1.1,0.9-2,2-2H83z"/>
	<path class="st1" d="M1,12L12,1h23L1,35V12z"/>
	<path class="st2" d="M10.4,9.4c0.4-0.4,1-0.4,1.4,0l4.2,4.2c0.4,0.4,0.4,1,0,1.4c-0.4,0.4-1,0.4-1.4,0l-4.2-4.2
		C10,10.4,10,9.8,10.4,9.4z M14.6,5.1c1.2-1.2,3.1-1.2,4.2,0s1.2,3.1,0,4.2L18.1,10l0.7,0.7c0.4,0.4,0.4,1,0,1.4s-1,0.4-1.4,0
		l-4.9-4.9L14.6,5.1z M7.5,12.2c0.4-0.4,1-0.4,1.4,0l2.8,2.8c0.1,0.1,0.1,0.1,0.2,0.2c0.1,0.2,0.1,0.3,0.1,0.5v2.8
		c0,0.3-0.1,0.5-0.3,0.7l-0.1,0.1c-0.2,0.2-0.4,0.3-0.7,0.3H8.1c-0.1,0-0.1,0-0.2,0c-0.2,0-0.4-0.1-0.6-0.3l-2.8-2.8
		c-0.4-0.4-0.4-1,0-1.4s1-0.4,1.4,0l2.5,2.5h1.4v-1.4l-2.5-2.5C7.1,13.2,7.1,12.6,7.5,12.2z M16,6.5l-0.7,0.7l1.4,1.4l0.7-0.7
		c0.4-0.4,0.4-1,0-1.4C17,6.1,16.4,6.1,16,6.5z"/>
</g>
<g class="st3">
	<g>
		<path class="st4" d="M10.3,84.2C8.1,82,8,79.3,9.8,77.6c0.8-0.8,1.9-1.1,2.7-1l0.1,1c-0.7,0-1.5,0.2-2.1,0.7
			c-1.3,1.3-1.1,3.2,0.6,4.9c1.7,1.7,3.6,2,5,0.7c0.7-0.7,0.9-1.4,0.8-2.4l1,0.1c0.1,1.2-0.2,2.2-1.1,3.1
			C15.1,86.5,12.5,86.4,10.3,84.2z"/>
		<path class="st4" d="M16,78.5c-2.2-2.2-2.3-4.7-0.6-6.5s4.3-1.6,6.5,0.6s2.4,4.8,0.6,6.5C20.7,80.9,18.2,80.7,16,78.5z M20.9,73.5
			c-1.7-1.7-3.6-2-4.8-0.7c-1.2,1.2-1,3.1,0.7,4.8c1.7,1.7,3.6,2,4.9,0.8C22.9,77.1,22.6,75.2,20.9,73.5z"/>
		<path class="st4" d="M19.9,67.7l0.9-0.9l6.8,1.8l2.1,0.7l0,0c-0.7-0.6-1.6-1.3-2.3-2.1L24,63.7l0.8-0.8l6.9,6.9l-0.9,0.9L24,68.9
			l-2.2-0.7l0,0c0.7,0.7,1.5,1.3,2.2,2l3.6,3.6l-0.8,0.8L19.9,67.7z"/>
		<path class="st4" d="M26.6,61l4-4l0.7,0.7l-3.1,3.1l2.3,2.3l2.6-2.6l0.7,0.7l-2.6,2.6l3.1,3.1l-0.9,0.9L26.6,61z"/>
		<path class="st4" d="M31.8,55.8l0.9-0.9l6.9,6.9l-0.9,0.9L31.8,55.8z"/>
		<path class="st4" d="M34.6,53.1l1.7-1.7c2.1-2.1,4.5-2,6.7,0.2s2.3,4.6,0.3,6.7l-1.8,1.8L34.6,53.1z M42.4,57.6
			c1.6-1.6,1.4-3.4-0.3-5.2c-1.7-1.7-3.5-1.9-5.1-0.3l-0.8,0.8l5.5,5.5L42.4,57.6z"/>
		<path class="st4" d="M41,46.6l4-4l0.7,0.7l-3.1,3.1l2.2,2.2l2.6-2.6l0.7,0.7l-2.6,2.6l2.5,2.5l3.2-3.2l0.7,0.7l-4.1,4.1L41,46.6z"
			/>
		<path class="st4" d="M46.5,41.1l0.9-0.9l6.8,1.8l2.1,0.7l0,0c-0.7-0.6-1.6-1.3-2.3-2.1L50.6,37l0.8-0.8l6.9,6.9L57.4,44l-6.8-1.8
			l-2.2-0.7l0,0c0.7,0.7,1.5,1.3,2.2,2l3.6,3.6L53.4,48L46.5,41.1z"/>
		<path class="st4" d="M55.4,33.7l-2.1,2.1L52.6,35l5-5l0.7,0.7l-2.1,2.1l6.1,6.1l-0.9,0.9L55.4,33.7z"/>
		<path class="st4" d="M58.9,28.7l0.9-0.9l6.9,6.9l-0.9,0.9L58.9,28.7z"/>
		<path class="st4" d="M69.5,27.6L67,30.1l1.4,2.8l-0.9,0.9L63,24.6l1-1l9.2,4.5L72.3,29L69.5,27.6z M68.6,27.1l-1.4-0.7
			c-1-0.5-2-1.1-3-1.6l0,0c0.6,1,1.1,2,1.6,3l0.7,1.4L68.6,27.1z"/>
		<path class="st4" d="M67.3,20.3l0.9-0.9l6.1,6.1l3-3l0.7,0.7l-3.9,3.9L67.3,20.3z"/>
	</g>
</g>
</svg>
