<?xml version="1.0" encoding="utf-8"?>
<!-- Generator: Adobe Illustrator 23.0.6, SVG Export Plug-In . SVG Version: 6.00 Build 0)  -->
<svg version="1.1" id="图层_1" xmlns="http://www.w3.org/2000/svg" xmlns:xlink="http://www.w3.org/1999/xlink" x="0px" y="0px"
	 viewBox="0 0 86 102" style="enable-background:new 0 0 86 102;" xml:space="preserve">
<style type="text/css">
	.st0{fill:#A5ACC1;fill-opacity:0.6;}
	.st1{fill-rule:evenodd;clip-rule:evenodd;fill:#F9C563;}
	.st2{fill-rule:evenodd;clip-rule:evenodd;fill:#FFFFFF;}
	.st3{opacity:0.6;}
	.st4{fill:#A5ACC1;}
</style>
<g>
	<path class="st0" d="M83,0H3C1.3,0,0,1.3,0,3v96c0,1.7,1.3,3,3,3h80c1.7,0,3-1.3,3-3V3C86,1.3,84.7,0,83,0z M83,1c1.1,0,2,0.9,2,2
		v96c0,1.1-0.9,2-2,2H3c-1.1,0-2-0.9-2-2V3c0-1.1,0.9-2,2-2H83z"/>
	<path class="st1" d="M1,12L12,1h23L1,35V12z"/>
	<path class="st2" d="M10.4,9.4c0.4-0.4,1-0.4,1.4,0l4.2,4.2c0.4,0.4,0.4,1,0,1.4s-1,0.4-1.4,0l-4.2-4.2C10,10.4,10,9.8,10.4,9.4z
		 M14.6,5.1c1.2-1.2,3.1-1.2,4.2,0s1.2,3.1,0,4.2L18.1,10l0.7,0.7c0.4,0.4,0.4,1,0,1.4s-1,0.4-1.4,0l-4.9-4.9L14.6,5.1z M7.5,12.2
		c0.4-0.4,1-0.4,1.4,0l2.8,2.8c0.1,0.1,0.1,0.1,0.2,0.2c0.1,0.2,0.1,0.3,0.1,0.5v2.8c0,0.3-0.1,0.5-0.3,0.7l-0.1,0.1
		c-0.2,0.2-0.4,0.3-0.7,0.3H8.1c-0.1,0-0.1,0-0.2,0c-0.2,0-0.4-0.1-0.6-0.3l-2.8-2.8c-0.4-0.4-0.4-1,0-1.4s1-0.4,1.4,0l2.5,2.5h1.4
		v-1.4l-2.5-2.5C7.1,13.2,7.1,12.6,7.5,12.2z M16,6.5l-0.7,0.7l1.4,1.4l0.7-0.7c0.4-0.4,0.4-1,0-1.4C17,6.1,16.4,6.1,16,6.5z"/>
</g>
<g class="st3">
	<g>
		<path class="st4" d="M12.8,50.8l0.5-0.5l3.8,3.8l-0.5,0.5L12.8,50.8z"/>
		<path class="st4" d="M14.3,49.2l0.5-0.5l3.8,1l1.2,0.4l0,0c-0.4-0.4-0.9-0.8-1.3-1.1l-2-2l0.5-0.5l3.8,3.8l-0.5,0.5l-3.8-1
			l-1.2-0.4l0,0c0.4,0.4,0.8,0.7,1.3,1.1l2,2L18.1,53L14.3,49.2z"/>
		<path class="st4" d="M19.3,45.1l-1.2,1.2l-0.4-0.4l2.8-2.8l0.4,0.4l-1.2,1.2l3.4,3.4l-0.5,0.5L19.3,45.1z"/>
		<path class="st4" d="M21.2,42.4l2.2-2.2l0.4,0.4l-1.7,1.7l1.2,1.2l1.4-1.4l0.4,0.4l-1.4,1.4l1.4,1.4l1.8-1.8l0.4,0.4L25,46.2
			L21.2,42.4z"/>
		<path class="st4" d="M30.2,41l-2.5-0.7L27,41l1.6,1.6l-0.5,0.5l-3.8-3.8l1.2-1.2c0.8-0.8,1.6-1.1,2.4-0.3c0.6,0.6,0.6,1.3,0.2,1.9
			l2.7,0.7L30.2,41z M26.6,40.6l0.6-0.6c0.6-0.6,0.7-1.2,0.2-1.7s-1-0.4-1.6,0.2l-0.6,0.6L26.6,40.6z"/>
		<path class="st4" d="M27.6,36l0.5-0.5l3.8,1l1.2,0.4l0,0c-0.4-0.4-0.9-0.8-1.3-1.1l-2-2l0.5-0.5l3.8,3.8l-0.5,0.5l-3.8-1l-1.2-0.4
			l0,0c0.4,0.4,0.8,0.7,1.3,1.1l2,2l-0.5,0.5L27.6,36z"/>
		<path class="st4" d="M35.7,33.1l-1.4,1.4l0.8,1.5l-0.5,0.5l-2.5-5.1l0.5-0.5l5.1,2.5l-0.5,0.5L35.7,33.1z M35.2,32.9l-0.8-0.4
			c-0.6-0.3-1.1-0.6-1.7-0.9l0,0c0.3,0.6,0.6,1.1,0.9,1.7l0.4,0.8L35.2,32.9z"/>
		<path class="st4" d="M34.5,29.1l0.5-0.5l3.4,3.4l1.7-1.7l0.4,0.4l-2.2,2.2L34.5,29.1z"/>
		<path class="st4" d="M38.5,25.1l0.5-0.5l3.8,3.8l-0.5,0.5L38.5,25.1z"/>
		<path class="st4" d="M40,23.6l0.5-0.5l3.8,1l1.2,0.4l0,0c-0.4-0.4-0.9-0.8-1.3-1.1l-2-2l0.5-0.5l3.8,3.8L46,25.2l-3.8-1L41,23.8
			l0,0c0.4,0.4,0.8,0.7,1.3,1.1l2,2l-0.5,0.5L40,23.6z"/>
		<path class="st4" d="M43.8,19.8l2.2-2.2l0.4,0.4l-1.7,1.7L46,21l1.5-1.5l0.4,0.4l-1.5,1.5l1.7,1.7l-0.5,0.5L43.8,19.8z"/>
		<path class="st4" d="M48.3,19.1c-1.2-1.2-1.3-2.6-0.3-3.6s2.4-0.9,3.6,0.3c1.2,1.2,1.3,2.7,0.4,3.6C50.9,20.4,49.5,20.3,48.3,19.1
			z M51,16.3c-1-1-2-1.1-2.7-0.4s-0.5,1.7,0.4,2.7c1,1,2,1.1,2.7,0.4C52.2,18.3,52,17.3,51,16.3z"/>
		<path class="st4" d="M56.4,14.8l-2.5-0.7l-0.7,0.7l1.6,1.6l-0.5,0.5l-3.8-3.8l1.2-1.2c0.8-0.8,1.6-1.1,2.4-0.3
			c0.6,0.6,0.6,1.3,0.2,1.9l2.7,0.7L56.4,14.8z M52.8,14.4l0.6-0.6c0.6-0.6,0.7-1.2,0.2-1.7s-1-0.4-1.6,0.2L51.3,13L52.8,14.4z"/>
		<path class="st4" d="M53.8,9.8l0.6-0.6l2.8,1.3c0.4,0.2,0.7,0.4,1.1,0.5l0,0c-0.2-0.4-0.4-0.7-0.5-1.1l-1.3-2.8L57,6.6l3.8,3.8
			l-0.5,0.5l-2.1-2.1c-0.3-0.3-0.8-0.8-1.1-1.2l0,0l0.6,1.2l1.3,2.7l-0.3,0.3L56,10.5L54.7,10l0,0c0.4,0.3,0.9,0.7,1.2,1.1l2.1,2.1
			l-0.4,0.4L53.8,9.8z"/>
		<path class="st4" d="M62.4,6.5L61,7.9l0.8,1.5l-0.5,0.5l-2.5-5.1l0.5-0.5l5.1,2.5l-0.5,0.5L62.4,6.5z M61.9,6.2l-0.8-0.4
			c-0.6-0.3-1.1-0.6-1.7-0.9l0,0C59.8,5.5,60,6,60.3,6.6l0.4,0.8L61.9,6.2z"/>
	</g>
</g>
<g class="st3">
	<g>
		<path class="st4" d="M41.4,88.8l0.5-0.5l3.8,3.8l-0.5,0.5L41.4,88.8z"/>
		<path class="st4" d="M42.9,87.3l0.5-0.5l3.8,1l1.2,0.4l0,0c-0.4-0.4-0.9-0.8-1.3-1.1l-2-2l0.5-0.5l3.8,3.8l-0.5,0.5l-3.8-1
			l-1.2-0.4l0,0c0.4,0.4,0.8,0.7,1.3,1.1l2,2l-0.5,0.5L42.9,87.3z"/>
		<path class="st4" d="M47.9,83.1l-1.2,1.2l-0.4-0.4l2.8-2.8l0.4,0.4l-1.2,1.2l3.4,3.4l-0.5,0.5L47.9,83.1z"/>
		<path class="st4" d="M49.8,80.4l2.2-2.2l0.4,0.4l-1.7,1.7l1.2,1.2l1.4-1.4l0.4,0.4l-1.4,1.4l1.4,1.4l1.8-1.8l0.4,0.4l-2.3,2.3
			L49.8,80.4z"/>
		<path class="st4" d="M58.8,79l-2.5-0.7L55.5,79l1.6,1.6l-0.5,0.5l-3.8-3.8l1.2-1.2c0.8-0.8,1.6-1.1,2.4-0.3
			c0.6,0.6,0.6,1.3,0.2,1.9l2.7,0.7L58.8,79z M55.1,78.6l0.6-0.6c0.6-0.6,0.7-1.2,0.2-1.7s-1-0.4-1.6,0.2l-0.6,0.6L55.1,78.6z"/>
		<path class="st4" d="M56.1,74l0.5-0.5l3.8,1l1.2,0.4l0,0c-0.4-0.4-0.9-0.8-1.3-1.1l-2-2l0.5-0.5l3.8,3.8l-0.5,0.5l-3.8-1l-1.2-0.4
			l0,0c0.4,0.4,0.8,0.7,1.2,1.1l2,2L60,77.8L56.1,74z"/>
		<path class="st4" d="M64.3,71.1l-1.4,1.4l0.8,1.5l-0.5,0.5l-2.5-5.1l0.5-0.5l5.1,2.5L65.8,72L64.3,71.1z M63.8,70.9L63,70.5
			c-0.6-0.3-1.1-0.6-1.7-0.9l0,0c0.3,0.6,0.6,1.1,0.9,1.7l0.4,0.8L63.8,70.9z"/>
		<path class="st4" d="M63.1,67.1l0.5-0.5L67,70l1.7-1.7l0.4,0.4l-2.2,2.2L63.1,67.1z"/>
		<path class="st4" d="M67,63.1l0.5-0.5l3.8,3.8l-0.5,0.5L67,63.1z"/>
		<path class="st4" d="M68.6,61.6l0.5-0.5l3.8,1l1.2,0.4l0,0c-0.4-0.4-0.9-0.8-1.3-1.1l-2-2l0.5-0.5l3.8,3.8l-0.5,0.5l-3.8-1
			l-1.2-0.4l0,0c0.4,0.4,0.8,0.7,1.3,1.1l2,2l-0.5,0.5L68.6,61.6z"/>
		<path class="st4" d="M72.3,57.8l2.2-2.2l0.4,0.4l-1.7,1.7l1.3,1.3l1.5-1.5l0.4,0.4l-1.5,1.5l1.7,1.7l-0.5,0.5L72.3,57.8z"/>
		<path class="st4" d="M76.8,57.1c-1.2-1.2-1.3-2.6-0.3-3.6s2.4-0.9,3.6,0.3s1.3,2.7,0.4,3.6C79.5,58.4,78.1,58.3,76.8,57.1z
			 M79.6,54.3c-1-1-2-1.1-2.7-0.4c-0.7,0.7-0.5,1.7,0.4,2.7c1,1,2,1.1,2.7,0.4C80.7,56.4,80.5,55.3,79.6,54.3z"/>
	</g>
</g>
<g class="st3">
	<g>
		<path class="st4" d="M4.9,92.1l0.5-0.5l3.8,3.8l-0.5,0.5L4.9,92.1z"/>
		<path class="st4" d="M6.5,90.6L7,90.1l3.8,1l1.2,0.4l0,0c-0.4-0.4-0.9-0.8-1.3-1.1l-2-2l0.5-0.5l3.8,3.8l-0.5,0.5l-3.8-1l-1.2-0.4
			l0,0c0.4,0.4,0.8,0.7,1.3,1.1l2,2l-0.5,0.5L6.5,90.6z"/>
		<path class="st4" d="M11.4,86.4l-1.2,1.2l-0.4-0.4l2.8-2.8l0.4,0.4L11.8,86l3.4,3.4l-0.5,0.5L11.4,86.4z"/>
		<path class="st4" d="M13.4,83.7l2.2-2.2l0.4,0.4l-1.7,1.7l1.2,1.2l1.4-1.4l0.4,0.4l-1.4,1.4l1.4,1.4l1.8-1.8l0.4,0.4l-2.3,2.3
			L13.4,83.7z"/>
		<path class="st4" d="M22.3,82.4l-2.5-0.7l-0.7,0.7l1.6,1.6l-0.5,0.5l-3.8-3.8l1.2-1.2c0.8-0.8,1.6-1.1,2.4-0.3
			c0.6,0.6,0.6,1.3,0.2,1.9l2.7,0.7L22.3,82.4z M18.7,82l0.6-0.6c0.6-0.6,0.7-1.2,0.2-1.7s-1-0.4-1.6,0.2l-0.6,0.6L18.7,82z"/>
		<path class="st4" d="M19.7,77.3l0.5-0.5l3.8,1l1.2,0.4l0,0c-0.4-0.4-0.9-0.8-1.3-1.1l-2-2l0.5-0.5l3.8,3.8l-0.5,0.5l-3.8-1
			l-1.2-0.4l0,0c0.4,0.4,0.8,0.7,1.3,1.1l2,2l-0.5,0.5L19.7,77.3z"/>
		<path class="st4" d="M27.9,74.5l-1.4,1.4l0.8,1.5l-0.5,0.5l-2.5-5.1l0.5-0.5l5.1,2.5l-0.5,0.5L27.9,74.5z M27.4,74.2l-0.8-0.4
			c-0.6-0.3-1.1-0.6-1.7-0.9l0,0c0.3,0.6,0.6,1.1,0.9,1.7l0.4,0.8L27.4,74.2z"/>
		<path class="st4" d="M26.6,70.4l0.5-0.5l3.4,3.4l1.7-1.7l0.4,0.4l-2.2,2.2L26.6,70.4z"/>
		<path class="st4" d="M30.6,66.4l0.5-0.5l3.8,3.8l-0.5,0.5L30.6,66.4z"/>
		<path class="st4" d="M32.2,64.9l0.5-0.5l3.8,1l1.2,0.4l0,0c-0.4-0.4-0.9-0.8-1.3-1.1l-2-2l0.5-0.5l3.8,3.8l-0.5,0.5l-3.8-1
			l-1.2-0.4l0,0c0.4,0.4,0.8,0.7,1.3,1.1l2,2L36,68.7L32.2,64.9z"/>
		<path class="st4" d="M35.9,61.1l2.2-2.2l0.4,0.4L36.8,61l1.3,1.3l1.5-1.5l0.4,0.4l-1.5,1.5l1.7,1.7L39.7,65L35.9,61.1z"/>
		<path class="st4" d="M40.4,60.4c-1.2-1.2-1.3-2.6-0.3-3.6s2.4-0.9,3.6,0.3c1.2,1.2,1.3,2.7,0.4,3.6C43.1,61.8,41.6,61.7,40.4,60.4
			z M43.2,57.7c-1-1-2-1.1-2.7-0.4C39.8,58,40,59,40.9,60c1,1,2,1.1,2.7,0.4C44.3,59.7,44.1,58.6,43.2,57.7z"/>
		<path class="st4" d="M48.5,56.2L46,55.5l-0.7,0.7l1.6,1.6l-0.5,0.5l-3.8-3.8l1.2-1.2c0.8-0.8,1.6-1.1,2.4-0.3
			c0.6,0.6,0.6,1.3,0.2,1.9l2.7,0.7L48.5,56.2z M44.9,55.8l0.6-0.6c0.6-0.6,0.7-1.2,0.2-1.7s-1-0.4-1.6,0.2l-0.6,0.6L44.9,55.8z"/>
		<path class="st4" d="M45.9,51.1l0.6-0.6l2.8,1.3c0.4,0.2,0.7,0.4,1.1,0.5l0,0c-0.2-0.4-0.4-0.7-0.5-1.1l-1.3-2.8l0.6-0.6l3.8,3.8
			l-0.5,0.5L50.4,50c-0.3-0.3-0.8-0.8-1.1-1.2l0,0l0.6,1.2l1.3,2.7L50.9,53l-2.7-1.3L47,51.1l0,0c0.4,0.3,0.9,0.7,1.2,1.1l2.1,2.1
			L49.7,55L45.9,51.1z"/>
		<path class="st4" d="M54.5,47.8l-1.4,1.4l0.8,1.5l-0.5,0.5l-2.5-5.1l0.5-0.5l5.1,2.5L56,48.6L54.5,47.8z M54,47.6l-0.8-0.4
			c-0.6-0.3-1.1-0.6-1.7-0.9l0,0c0.3,0.6,0.6,1.1,0.9,1.7l0.4,0.8L54,47.6z"/>
		<path class="st4" d="M54.2,43.7L53,44.8l-0.4-0.4l2.8-2.8l0.4,0.4l-1.2,1.2l3.4,3.4l-0.5,0.5L54.2,43.7z"/>
		<path class="st4" d="M56.1,41l0.5-0.5l3.8,3.8l-0.5,0.5L56.1,41z"/>
		<path class="st4" d="M59.3,41.5c-1.2-1.2-1.3-2.6-0.3-3.6s2.4-0.9,3.6,0.3c1.2,1.2,1.3,2.7,0.4,3.6S60.5,42.8,59.3,41.5z
			 M62.1,38.8c-1-1-2-1.1-2.7-0.4c-0.7,0.7-0.5,1.7,0.4,2.7c1,1,2,1.1,2.7,0.4C63.2,40.8,63,39.7,62.1,38.8z"/>
		<path class="st4" d="M61.5,35.6l0.5-0.5l3.8,1l1.2,0.4l0,0c-0.4-0.4-0.9-0.8-1.3-1.1l-2-2l0.5-0.5l3.8,3.8l-0.5,0.5l-3.8-1
			l-1.2-0.4l0,0c0.4,0.4,0.8,0.7,1.3,1.1l2,2l-0.5,0.5L61.5,35.6z"/>
	</g>
</g>
<g class="st3">
	<g>
		<path class="st4" d="M71,25.3l0.5-0.5l3.8,3.8l-0.5,0.5L71,25.3z"/>
		<path class="st4" d="M72.6,23.8l0.5-0.5l3.8,1l1.2,0.4l0,0c-0.4-0.4-0.9-0.8-1.3-1.1l-2-2l0.5-0.5l3.8,3.8l-0.5,0.5l-3.8-1
			L73.6,24l0,0c0.4,0.4,0.8,0.7,1.2,1.1l2,2l-0.5,0.5L72.6,23.8z"/>
		<path class="st4" d="M77.5,19.6l-1.2,1.2L76,20.4l2.8-2.8l0.4,0.4L78,19.2l3.4,3.4l-0.5,0.5L77.5,19.6z"/>
	</g>
</g>
</svg>
