<?xml version="1.0" encoding="utf-8"?>
<!-- Generator: Adobe Illustrator 23.0.6, SVG Export Plug-In . SVG Version: 6.00 Build 0)  -->
<svg version="1.1" id="图层_1" xmlns="http://www.w3.org/2000/svg" xmlns:xlink="http://www.w3.org/1999/xlink" x="0px" y="0px"
	 viewBox="0 0 86 102" style="enable-background:new 0 0 86 102;" xml:space="preserve">
<style type="text/css">
	.st0{fill:#A5ACC1;fill-opacity:0.6;}
	.st1{fill-rule:evenodd;clip-rule:evenodd;fill:#F9C563;}
	.st2{fill-rule:evenodd;clip-rule:evenodd;fill:#FFFFFF;}
	.st3{opacity:0.6;}
	.st4{fill:#A5ACC1;}
</style>
<g>
	<path class="st0" d="M83,0H3C1.3,0,0,1.3,0,3v96c0,1.7,1.3,3,3,3h80c1.7,0,3-1.3,3-3V3C86,1.3,84.7,0,83,0z M83,1c1.1,0,2,0.9,2,2
		v96c0,1.1-0.9,2-2,2H3c-1.1,0-2-0.9-2-2V3c0-1.1,0.9-2,2-2H83z"/>
	<path class="st1" d="M1,12L12,1h23L1,35V12z"/>
	<path class="st2" d="M10.4,9.4c0.4-0.4,1-0.4,1.4,0l4.2,4.2c0.4,0.4,0.4,1,0,1.4c-0.4,0.4-1,0.4-1.4,0l-4.2-4.2
		C10,10.4,10,9.8,10.4,9.4z M14.6,5.1c1.2-1.2,3.1-1.2,4.2,0s1.2,3.1,0,4.2L18.1,10l0.7,0.7c0.4,0.4,0.4,1,0,1.4s-1,0.4-1.4,0
		l-4.9-4.9L14.6,5.1z M7.5,12.2c0.4-0.4,1-0.4,1.4,0l2.8,2.8c0.1,0.1,0.1,0.1,0.2,0.2c0.1,0.2,0.1,0.3,0.1,0.5v2.8
		c0,0.3-0.1,0.5-0.3,0.7l-0.1,0.1c-0.2,0.2-0.4,0.3-0.7,0.3H8.1c-0.1,0-0.1,0-0.2,0c-0.2,0-0.4-0.1-0.6-0.3l-2.8-2.8
		c-0.4-0.4-0.4-1,0-1.4s1-0.4,1.4,0l2.5,2.5h1.4v-1.4l-2.5-2.5C7.1,13.2,7.1,12.6,7.5,12.2z M16,6.5l-0.7,0.7l1.4,1.4l0.7-0.7
		c0.4-0.4,0.4-1,0-1.4C17,6.1,16.4,6.1,16,6.5z"/>
</g>
<g class="st3">
	<g>
		<g>
			<path class="st4" d="M16.1,74.8l-2.1,2l-0.7-0.7l5-5l0.7,0.7l-2,2.1l6.1,6.1l-0.9,0.9L16.1,74.8z"/>
			<path class="st4" d="M22.3,73.9c-2.2-2.2-2.3-4.7-0.6-6.5s4.3-1.6,6.5,0.6s2.4,4.8,0.6,6.5C27.1,76.3,24.5,76.1,22.3,73.9z
				 M27.3,68.9c-1.7-1.7-3.6-2-4.8-0.7c-1.2,1.2-1,3.1,0.7,4.8c1.7,1.7,3.6,2,4.9,0.8C29.3,72.6,29,70.7,27.3,68.9z"/>
			<path class="st4" d="M26.3,63.2l2-2c1.5-1.5,3.1-2.1,4.6-0.6c1.5,1.5,1.1,3.2-0.4,4.7l-1.1,1.1l2.7,2.7l-1,0.9L26.3,63.2z
				 M31.6,64.7c1.2-1.2,1.3-2.2,0.4-3.2c-1-1-1.9-0.7-3.1,0.5l-1,1l2.7,2.7L31.6,64.7z"/>
			<path class="st4" d="M39.8,61.6l-0.1-1.1c1,0,2-0.3,2.8-1c0.9-0.9,1-1.9,0.3-2.6c-0.7-0.7-1.4-0.4-2.4-0.1L39,57.4
				c-0.9,0.4-2.2,0.6-3.2-0.4c-1.1-1.1-0.9-2.7,0.3-4c0.8-0.8,1.9-1.2,2.9-1.2l0.1,1c-0.8,0-1.6,0.3-2.2,0.9
				c-0.8,0.8-0.9,1.7-0.3,2.3c0.7,0.7,1.5,0.3,2.3,0l1.4-0.6c1.1-0.4,2.2-0.6,3.2,0.4c1.1,1.1,1,2.8-0.4,4.3
				C42.2,61.2,41,61.6,39.8,61.6z"/>
			<path class="st4" d="M39.9,49.6l4-4l0.7,0.7l-3.1,3.1l2.2,2.2l2.6-2.6l0.7,0.7l-2.6,2.6l2.5,2.5l3.2-3.2l0.7,0.7l-4.1,4.1
				L39.9,49.6z"/>
			<path class="st4" d="M48.4,47.9c-2.2-2.2-2.3-4.9-0.5-6.6c0.8-0.8,1.9-1.1,2.7-1l0.1,1c-0.7,0-1.5,0.2-2.1,0.7
				c-1.3,1.3-1.1,3.2,0.6,4.9c1.7,1.7,3.6,2,5,0.7c0.7-0.7,0.9-1.4,0.8-2.4l1,0.1c0.1,1.2-0.2,2.2-1.1,3.1
				C53.3,50.1,50.7,50.1,48.4,47.9z"/>
			<path class="st4" d="M62,41.2L57.4,40l-1.2,1.2l2.9,2.9L58.2,45l-6.9-6.9l2.2-2.2c1.4-1.4,2.9-1.9,4.3-0.5
				c1.1,1.1,1.1,2.3,0.4,3.5l4.8,1.2L62,41.2z M55.5,40.5l1.2-1.2c1.1-1.1,1.2-2.1,0.3-3s-1.8-0.6-2.9,0.4l-1.2,1.2L55.5,40.5z"/>
			<path class="st4" d="M57.3,32.1l4-4l0.7,0.7L58.9,32l2.2,2.2l2.6-2.6l0.7,0.7l-2.6,2.6l2.5,2.5l3.2-3.2l0.7,0.7l-4,4.1L57.3,32.1
				z"/>
			<path class="st4" d="M65,25.9L62.9,28l-0.7-0.7l5-5l0.7,0.7l-2.1,2l6.1,6.1L71,32L65,25.9z"/>
		</g>
	</g>
</g>
</svg>
